<svg width="32" height="31" viewBox="0 0 32 31" fill="none" xmlns="http://www.w3.org/2000/svg">
<circle cx="24.5" cy="22.5" r="6.5" fill="#4DE926"/>
<path d="M24.2684 15.0348C23.5085 15.0343 22.753 15.1487 22.0274 15.3744C21.1283 14.8031 20.1513 14.3647 19.1268 14.0728C20.1134 13.433 20.8731 12.4985 21.2983 11.4022C21.7234 10.3059 21.7922 9.1035 21.495 7.96584C21.1977 6.82818 20.5495 5.81313 19.6425 5.06489C18.7354 4.31664 17.6156 3.87328 16.4422 3.79777C16.1549 2.9524 15.6695 2.18799 15.0267 1.5683C14.3839 0.948616 13.6023 0.491623 12.7469 0.235444C11.8916 -0.0207358 10.9874 -0.0686753 10.1098 0.0956252C9.23221 0.259926 8.4066 0.631702 7.70187 1.17994C6.99714 1.72818 6.43373 2.43699 6.05862 3.24724C5.68352 4.05749 5.5076 4.94569 5.54554 5.83775C5.58349 6.7298 5.83419 7.59986 6.27674 8.37533C6.71929 9.1508 7.34086 9.80921 8.08959 10.2956C5.76134 10.9619 3.713 12.3675 2.25372 14.3001C0.79443 16.2328 0.00339493 18.5877 0 21.0094C0 21.1871 0.0705811 21.3575 0.196216 21.4831C0.321851 21.6087 0.492248 21.6793 0.669922 21.6793H5.37622C5.08186 22.6887 4.93235 23.7348 4.93216 24.7862C4.93216 24.9639 5.00274 25.1343 5.12837 25.2599C5.25401 25.3856 5.4244 25.4561 5.60208 25.4561H17.297C17.8186 26.7185 18.6732 27.8155 19.7697 28.63C20.8661 29.4445 22.1632 29.946 23.5224 30.0808C24.8816 30.2157 26.2519 29.9788 27.487 29.3956C28.7221 28.8124 29.7756 27.9047 30.5351 26.7694C31.2945 25.6341 31.7314 24.3139 31.799 22.9497C31.8667 21.5855 31.5625 20.2286 30.9191 19.0237C30.2757 17.8189 29.3171 16.8114 28.1458 16.1089C26.9744 15.4063 25.6343 15.0351 24.2684 15.0348ZM20.3373 9.38147C20.3372 10.2244 20.0872 11.0485 19.6188 11.7493C19.1504 12.4502 18.4847 12.9964 17.7059 13.319C16.9271 13.6415 16.0701 13.7259 15.2433 13.5614C14.4165 13.3969 13.6571 12.9909 13.0611 12.3948C12.465 11.7987 12.0591 11.0392 11.8947 10.2125C11.7303 9.38568 11.8147 8.52871 12.1373 7.74991C12.4599 6.97111 13.0062 6.30546 13.7071 5.83714C14.408 5.36882 15.2321 5.11885 16.0751 5.11885C17.2052 5.12007 18.2886 5.56957 19.0877 6.36871C19.8868 7.16785 20.3362 8.25136 20.3373 9.38147ZM6.88029 5.60464C6.87982 4.62739 7.2153 3.67968 7.83051 2.92038C8.44571 2.16107 9.30323 1.63633 10.2593 1.43411C11.2154 1.23189 12.212 1.36448 13.0819 1.80966C13.9519 2.25485 14.6424 2.98556 15.0376 3.8793C13.7556 4.12226 12.5983 4.80463 11.7651 5.80892C10.932 6.81321 10.475 8.07657 10.473 9.38147C10.473 9.52694 10.4837 9.66973 10.4948 9.81213C9.48959 9.65702 8.5729 9.14777 7.91011 8.37626C7.24733 7.60474 6.88209 6.62175 6.88029 5.60464ZM1.36243 20.3395C1.53113 17.9238 2.58686 15.6558 4.32664 13.9715C6.06643 12.2872 8.36744 11.3055 10.7873 11.2151C11.1962 12.3883 11.982 13.393 13.0221 14.0725C11.4413 14.5266 9.97995 15.3237 8.74218 16.4069C7.50441 17.4901 6.52063 18.8328 5.86086 20.3395H1.36243ZM6.29497 24.1163C6.40456 22.5008 6.91292 20.9376 7.77458 19.5666C8.63623 18.1957 9.8243 17.0597 11.2325 16.2603C12.6407 15.461 14.225 15.0232 15.8439 14.9861C17.4627 14.949 19.0655 15.3137 20.5088 16.0478C19.1302 16.8379 18.037 18.044 17.3856 19.4933C16.7342 20.9426 16.5581 22.5608 16.8824 24.1163H6.29497ZM24.2684 28.7836C23.0412 28.7836 21.8416 28.4198 20.8212 27.7381C19.8008 27.0563 19.0055 26.0873 18.5358 24.9536C18.0661 23.8199 17.9432 22.5723 18.1826 21.3687C18.4219 20.1651 19.0128 19.0595 19.8805 18.1917C20.7483 17.324 21.8538 16.733 23.0574 16.4936C24.261 16.2541 25.5086 16.377 26.6423 16.8466C27.7761 17.3162 28.7452 18.1114 29.4269 19.1318C30.1087 20.1521 30.4726 21.3518 30.4726 22.5789C30.4708 24.2239 29.8166 25.8009 28.6535 26.9641C27.4904 28.1273 25.9133 28.7816 24.2684 28.7836Z" fill="#34495E"/>
<path d="M28.946 22.5817C28.946 22.4041 28.8754 22.2338 28.7498 22.1082C28.6242 21.9826 28.4539 21.9121 28.2763 21.912L24.936 21.912L24.9363 18.572C24.9378 18.483 24.9216 18.3947 24.8886 18.312C24.8557 18.2294 24.8066 18.1542 24.7442 18.0908C24.6818 18.0273 24.6075 17.977 24.5254 17.9426C24.4434 17.9082 24.3553 17.8905 24.2663 17.8905C24.1774 17.8905 24.0893 17.9083 24.0073 17.9427C23.9253 17.9771 23.8509 18.0275 23.7886 18.091C23.7262 18.1544 23.6772 18.2297 23.6442 18.3123C23.6113 18.3949 23.5951 18.4833 23.5967 18.5722L23.5969 21.9123L20.2577 21.9112C20.1688 21.9097 20.0804 21.9259 19.9978 21.9588C19.9152 21.9918 19.84 22.0409 19.7765 22.1033C19.7131 22.1657 19.6627 22.24 19.6283 22.3221C19.594 22.4041 19.5763 22.4922 19.5763 22.5811C19.5763 22.6701 19.594 22.7582 19.6284 22.8402C19.6629 22.9222 19.7133 22.9966 19.7767 23.0589C19.8402 23.1212 19.9154 23.1703 19.998 23.2033C20.0807 23.2362 20.169 23.2524 20.258 23.2508L23.5977 23.2508L23.598 26.5909C23.598 26.7684 23.6686 26.9387 23.7942 27.0643C23.9198 27.1898 24.0901 27.2603 24.2677 27.2603C24.4453 27.2602 24.6156 27.1897 24.7411 27.0641C24.8666 26.9385 24.9371 26.7682 24.9371 26.5906L24.9374 23.2505L28.2771 23.2505C28.4545 23.2504 28.6245 23.1798 28.7499 23.0544C28.8753 22.929 28.9458 22.759 28.946 22.5817Z" fill="#34495E"/>
</svg>
