<svg width="53" height="53" viewBox="0 0 53 53" fill="none" xmlns="http://www.w3.org/2000/svg">
<g clip-path="url(#clip0)">
<path d="M52.1551 40.9278L31.8972 5.84002C30.7707 3.88896 28.7531 2.724 26.5 2.724C24.247 2.724 22.2292 3.88896 21.1028 5.84002L0.844919 40.9277C-0.28164 42.879 -0.28164 45.2087 0.844919 47.1599C1.97148 49.111 3.98899 50.2759 6.24211 50.2759H46.7578C49.0109 50.2759 51.0285 49.1109 52.1551 47.16C53.2817 45.2087 53.2817 42.879 52.1551 40.9278ZM49.466 45.6074C48.9007 46.5865 47.8883 47.1709 46.7578 47.1709H6.24211C5.11151 47.1709 4.09913 46.5865 3.53394 45.6074C2.96875 44.6284 2.96875 43.4595 3.53394 42.4804L23.792 7.39265C24.3572 6.4136 25.3696 5.82915 26.5001 5.82915C27.6305 5.82915 28.643 6.4136 29.2081 7.39265L49.4661 42.4804C50.0312 43.4595 50.0312 44.6284 49.466 45.6074Z" fill="#34495E"/>
<path d="M28.0523 18.2197H24.9473V33.7452H28.0523V18.2197Z" fill="#34495E"/>
<path d="M26.4998 36.8505C25.3583 36.8505 24.4297 37.7791 24.4297 38.9206C24.4297 40.062 25.3583 40.9907 26.4998 40.9907C27.6412 40.9907 28.5699 40.062 28.5699 38.9206C28.5699 37.7791 27.6413 36.8505 26.4998 36.8505Z" fill="#34495E"/>
</g>
<defs>
<clipPath id="clip0">
<rect width="53" height="53" fill="white"/>
</clipPath>
</defs>
</svg>
