<svg width="44" height="44" viewBox="0 0 44 44" fill="none" xmlns="http://www.w3.org/2000/svg">
<path d="M22 0C13.4705 0 6.53125 6.93928 6.53125 15.4688C6.53125 18.3506 7.32952 21.163 8.8403 23.6029L21.1195 43.3906C21.3547 43.7697 21.7691 44 22.2148 44C22.2182 44 22.2215 44 22.225 44C22.6745 43.9965 23.0898 43.759 23.3207 43.3733L35.2869 23.3939C36.7143 21.0055 37.4688 18.2651 37.4688 15.4688C37.4688 6.93928 30.5295 0 22 0ZM33.0744 22.0703L22.1953 40.2347L11.0315 22.2446C9.77402 20.2137 9.09219 17.8707 9.09219 15.4688C9.09219 8.36086 14.8921 2.56094 22 2.56094C29.1079 2.56094 34.8992 8.36086 34.8992 15.4688C34.8992 17.7995 34.2623 20.0826 33.0744 22.0703Z" fill="#34495E"/>
<path d="M22 7.73438C17.7353 7.73438 14.2656 11.204 14.2656 15.4688C14.2656 19.7062 17.6788 23.2031 22 23.2031C26.3745 23.2031 29.7344 19.6597 29.7344 15.4688C29.7344 11.204 26.2647 7.73438 22 7.73438ZM22 20.6422C19.142 20.6422 16.8266 18.319 16.8266 15.4688C16.8266 12.6256 19.1568 10.2953 22 10.2953C24.8432 10.2953 27.1648 12.6256 27.1648 15.4688C27.1648 18.2774 24.9033 20.6422 22 20.6422Z" fill="#34495E"/>
</svg>
