<svg width="57" height="57" viewBox="0 0 57 57" fill="none" xmlns="http://www.w3.org/2000/svg">
<g clip-path="url(#clip0)">
<path d="M2.42429 9.56432L2.42428 9.56428C2.39512 9.46012 2.32542 9.37086 2.22942 9.3169C2.13331 9.26289 2.01925 9.24905 1.91259 9.27879L1.91223 9.2789L1.80314 9.30929C1.80304 9.30932 1.80295 9.30934 1.80285 9.30937C1.58086 9.37144 1.45562 9.59883 1.51591 9.81434C1.51592 9.81436 1.51593 9.81439 1.51593 9.81441L11.1993 44.3963L9.75488 44.8008L11.1993 44.3963C11.201 44.4025 11.2027 44.4046 11.2036 44.4057C11.2052 44.4078 11.2084 44.4108 11.2133 44.4136C11.2183 44.4164 11.2229 44.4177 11.2262 44.4181L2.42429 9.56432ZM2.42429 9.56432L12.1075 44.1463C12.1091 44.1523 12.1088 44.1547 12.1087 44.1558L12.1087 44.1558C12.1084 44.158 12.1075 44.1617 12.105 44.1661C12.1043 44.1673 12.1036 44.1684 12.1028 44.1694C12.1009 44.1721 12.099 44.1741 12.0973 44.1753C12.096 44.1765 12.0932 44.1785 12.0861 44.1805L2.42429 9.56432ZM12.086 44.1805L11.2392 44.4167L12.086 44.1805Z" fill="white" stroke="#34495E" stroke-width="3"/>
<path d="M28.2372 26.1457C23.0884 25.6278 17.2564 25.0411 12.4817 28.4926L6.87713 8.46444C10.8341 4.90771 15.9661 5.41765 21.9694 6.01416L22.0544 6.0226C27.2899 6.54276 33.2066 7.10311 37.9965 3.37468C37.4186 7.20011 36.6328 10.9921 35.6423 14.7338C35.411 15.5526 35.6613 16.4319 36.2892 17.0066C38.6976 19.213 41.379 21.1007 44.2669 22.6243C40.3483 27.1416 35.0934 26.8268 28.8785 26.21C28.666 26.1889 28.4522 26.1674 28.2372 26.1457ZM44.4682 22.242C44.4683 22.2422 44.4683 22.2444 44.4681 22.2489C44.468 22.2442 44.4681 22.2419 44.4682 22.242Z" fill="white" stroke="#34495E" stroke-width="3"/>
</g>
<defs>
<clipPath id="clip0">
<rect width="57" height="57" fill="white"/>
</clipPath>
</defs>
</svg>
