<svg width="60" height="60" viewBox="0 0 60 60" fill="none" xmlns="http://www.w3.org/2000/svg">
<path d="M1.16302 12.0581C1.16694 12.0581 1.17086 12.0581 1.17464 12.0581H5.11727V10.709C5.09605 10.1751 5.44146 9.69518 5.95464 9.54603C8.6918 8.82874 11.5104 8.46907 14.34 8.47605C18.9921 8.47605 25.3305 9.52277 30.0174 14.2911C34.6695 9.47625 41.0545 8.47605 45.6949 8.47605C48.5245 8.46907 51.3431 8.82874 54.0802 9.54603C54.5934 9.69518 54.9388 10.1751 54.9176 10.709V12.0465H58.837C59.4793 12.0465 60 12.5673 60 13.2095V50.3563C60 50.9985 59.4793 51.5193 58.837 51.5193C58.6372 51.5187 58.441 51.4667 58.2671 51.3681C58.1508 51.3099 46.5206 44.9482 30.2849 49.0421H30.1105H30.0058C29.9131 49.0532 29.8194 49.0532 29.7267 49.0421C13.4445 44.9133 1.8143 51.2634 1.74453 51.3681C1.38472 51.5758 0.941315 51.5758 0.581509 51.3681C0.223881 51.1617 0.00247192 50.7809 0 50.3679V13.2212C0 12.5789 0.520596 12.0581 1.16302 12.0581ZM57.674 48.5071V14.3842H54.8944V43.5526C54.9016 44.1949 54.3868 44.7215 53.7446 44.7287C53.6818 44.7295 53.619 44.7251 53.5569 44.7156C51.1509 44.3483 48.7218 44.1539 46.288 44.1341C42.9167 44.0757 39.5596 44.5828 36.3559 45.6344C43.5906 44.7595 50.9289 45.7484 57.674 48.5071ZM46.288 41.8197C48.4034 41.8245 50.5163 41.9604 52.6148 42.2268V11.6278C50.3505 11.1234 48.0381 10.8659 45.7182 10.8602C41.3685 10.8602 35.3673 11.8604 31.2037 16.559L31.1688 45.5297C33.5879 43.948 38.3097 41.8197 46.288 41.8197ZM28.8428 16.559C24.6792 11.9069 18.678 10.8602 14.3284 10.8602C12.0086 10.8671 9.69621 11.1244 7.43167 11.6278V42.2268C9.51841 41.958 11.6197 41.8181 13.7236 41.8081C21.6554 41.8081 26.3888 43.9364 28.8428 45.5181V16.559ZM2.33766 48.5071C9.09711 45.7408 16.4523 44.7518 23.7023 45.6344C20.4835 44.579 17.1103 44.0718 13.7236 44.1341C11.2746 44.1478 8.82976 44.3382 6.40822 44.704C5.77321 44.8004 5.18022 44.3637 5.08384 43.7287C5.07439 43.6666 5.07002 43.6038 5.07075 43.541V14.3842H2.29114L2.33766 48.5071Z" fill="#34495E"/>
</svg>
