<svg width="47" height="48" viewBox="0 0 47 48" fill="none" xmlns="http://www.w3.org/2000/svg">
<path d="M0.0249221 8.14772C0.011158 3.72946 3.5817 0.136608 7.99996 0.122844L38.7847 0.0269409C43.2029 0.0131768 46.7958 3.58372 46.8096 8.00198L46.9058 38.884C46.9195 43.3022 43.349 46.8951 38.9307 46.9089L8.14601 47.0048C3.72775 47.0185 0.134892 43.448 0.121128 39.0297L0.0249221 8.14772Z" fill="#FFA801" fill-opacity="0.65"/>
<path d="M38.5914 0H8.40859C3.77285 0 0 3.77285 0 8.40859V38.5914C0 43.2271 3.77285 47 8.40859 47H38.5914C43.2271 47 47 43.2271 47 38.5914V8.40859C47 3.77285 43.2271 0 38.5914 0ZM44.2461 38.5914C44.2461 41.7125 41.7125 44.2461 38.5914 44.2461H8.40859C5.2875 44.2461 2.75391 41.7125 2.75391 38.5914V8.40859C2.75391 5.2875 5.2875 2.75391 8.40859 2.75391H38.5914C41.7125 2.75391 44.2461 5.2875 44.2461 8.40859V38.5914Z" fill="#34495E"/>
<path d="M39.7206 10.3271H18.7542C18.1758 8.61054 16.5602 7.38046 14.6508 7.38046C12.7415 7.38046 11.1258 8.61972 10.5475 10.3271H7.27954C6.51763 10.3271 5.90259 10.9422 5.90259 11.7041C5.90259 12.466 6.51763 13.081 7.27954 13.081H10.5567C11.135 14.7976 12.7506 16.0277 14.66 16.0277C16.5694 16.0277 18.185 14.7885 18.7633 13.081H39.7389C40.5008 13.081 41.1159 12.466 41.1159 11.7041C41.1159 10.9422 40.4825 10.3271 39.7206 10.3271ZM14.6508 13.2738C13.7879 13.2738 13.0811 12.567 13.0811 11.7041C13.0811 10.8412 13.7879 10.1344 14.6508 10.1344C15.5137 10.1344 16.2206 10.8412 16.2206 11.7041C16.2206 12.567 15.5137 13.2738 14.6508 13.2738Z" fill="#34495E"/>
<path d="M39.7206 22.123H36.4434C35.8651 20.4064 34.2495 19.1763 32.3401 19.1763C30.4307 19.1763 28.8243 20.4064 28.246 22.123H7.27954C6.51763 22.123 5.90259 22.7381 5.90259 23.5C5.90259 24.2619 6.51763 24.8769 7.27954 24.8769H28.2551C28.8335 26.5935 30.4491 27.8236 32.3585 27.8236C34.2678 27.8236 35.8835 26.5843 36.4618 24.8769H39.7389C40.5008 24.8769 41.1159 24.2619 41.1159 23.5C41.1159 22.7381 40.4825 22.123 39.7206 22.123ZM32.3493 25.0697C31.4864 25.0697 30.7796 24.3629 30.7796 23.5C30.7796 22.6371 31.4864 21.9302 32.3493 21.9302C33.2122 21.9302 33.919 22.6371 33.919 23.5C33.919 24.3629 33.2122 25.0697 32.3493 25.0697Z" fill="#34495E"/>
<path d="M39.7206 33.9189H24.6475C24.0692 32.2023 22.4536 30.9722 20.5442 30.9722C18.6348 30.9722 17.0192 32.2115 16.4409 33.9189H7.27954C6.51763 33.9189 5.90259 34.5339 5.90259 35.2959C5.90259 36.0578 6.51763 36.6728 7.27954 36.6728H16.4501C17.0284 38.3894 18.644 39.6195 20.5534 39.6195C22.4627 39.6195 24.0784 38.3802 24.6567 36.6728H39.7298C40.4917 36.6728 41.1067 36.0578 41.1067 35.2959C41.1067 34.5339 40.4825 33.9189 39.7206 33.9189ZM20.5534 36.8748C19.6905 36.8748 18.9836 36.1679 18.9836 35.305C18.9836 34.4422 19.6905 33.7353 20.5534 33.7353C21.4163 33.7353 22.1231 34.4422 22.1231 35.305C22.1231 36.1679 21.4163 36.8748 20.5534 36.8748Z" fill="#34495E"/>
</svg>
