<svg width="54" height="54" viewBox="0 0 54 54" fill="none" xmlns="http://www.w3.org/2000/svg">
<g clip-path="url(#clip0)">
<path d="M53.4357 23.0911C53.4357 23.0911 48.6766 19.4413 48.6766 19.4258C48.6766 19.4258 48.2793 19.0391 48.2793 18.2577C48.2793 16.2571 48.2793 10.2553 48.2793 10.2553C48.2793 9.3544 47.5464 8.62143 46.6454 8.62143H40.7707C39.8698 8.62143 39.1368 9.3544 39.1368 10.2553C39.1368 10.2553 39.1368 11.2622 39.1368 11.5978C39.1368 11.9707 38.9335 11.7994 38.9335 11.7994L28.1028 3.36629C27.8227 3.1482 27.4921 3.03284 27.1468 3.03284C26.5812 3.03284 26.0622 3.3518 25.7924 3.86512L23.2568 8.68806C22.948 9.27527 22.9469 10.096 23.2539 10.6838L26.5293 16.9568C26.5293 16.9568 26.7692 17.2806 26.4433 17.8539C25.5847 19.3636 22.3431 23.4619 22.3431 23.4619C21.9479 24.0022 21.8317 24.8189 22.0605 25.448L22.9304 27.8405C22.9304 27.8405 23.2113 28.6054 22.6688 28.1593C21.6128 27.2909 19.7726 25.9001 18.8267 25.1229C18.3096 24.6983 18.7104 24.1865 18.7104 24.1865L21.9447 18.5273C22.3233 17.8642 22.2382 16.9618 21.7425 16.3812L17.7562 11.7139C17.4418 11.3458 16.9808 11.1345 16.4915 11.1345C16.1232 11.1345 15.7619 11.258 15.4739 11.4821L0.56438 23.091C-0.0147252 23.5416 -0.0752499 24.127 0.0612859 24.5244C0.19768 24.9218 0.604872 25.3466 1.3387 25.3466H4.62281C4.62281 25.3466 4.95896 25.314 4.95896 25.6574C4.95896 31.5764 4.95896 49.3333 4.95896 49.3333C4.95896 50.2342 5.69193 50.9672 6.59284 50.9672H21.1732C22.0741 50.9672 22.8071 50.2342 22.8071 49.3333V42.3549C22.8071 42.0294 22.7981 41.5031 22.7869 41.1859C22.7863 41.1644 22.7436 39.0152 24.009 37.7155C24.6835 37.0226 25.6084 36.6859 26.8365 36.6859C28.1395 36.6859 29.1669 37.0541 29.8902 37.7804C31.1934 39.0892 31.1998 41.1882 31.1998 41.2048C31.1959 41.5212 31.1926 42.0385 31.1926 42.3547V49.3331C31.1926 50.234 31.9256 50.967 32.8265 50.967H47.4068C48.3077 50.967 49.0407 50.234 49.0407 49.3331C49.0407 49.3331 49.0407 31.7007 49.0407 25.8231C49.0407 25.3081 49.4829 25.3466 49.4829 25.3466H52.661C53.3948 25.3466 53.802 24.9219 53.9384 24.5244C54.0752 24.127 54.0147 23.5416 53.4357 23.0911ZM41.2681 11.0471C41.2681 10.763 41.552 10.7524 41.552 10.7524H45.7785C45.7785 10.7524 46.1483 10.7394 46.1483 11.1301C46.1483 12.542 46.1483 15.2713 46.1483 16.7776C46.1483 17.4052 45.7877 17.1358 45.7877 17.1358L41.3241 13.6605C41.3031 13.633 41.2681 13.5779 41.2681 13.3826C41.2681 13.3826 41.2681 11.6718 41.2681 11.0471ZM48.5437 23.2154C47.6428 23.2154 46.9098 23.9484 46.9098 24.8493V48.3068C46.9098 48.3068 46.9796 48.8359 46.3935 48.8359C43.2812 48.8359 37.1855 48.8359 33.9441 48.8359C33.3225 48.8359 33.324 48.2535 33.324 48.2535V42.3546C33.324 42.0456 33.3273 41.5402 33.331 41.2312C33.3326 41.1101 33.3455 38.2456 31.4166 36.2928C30.2775 35.1394 28.7365 34.5546 26.8368 34.5546C25.0206 34.5546 23.5507 35.1227 22.4681 36.2433C20.5746 38.2033 20.6531 41.1315 20.6573 41.2553C20.6675 41.5513 20.6762 42.0547 20.6762 42.3546V48.4311C20.6762 48.4311 20.7133 48.8359 20.0562 48.8359C16.8147 48.8359 10.799 48.8359 7.71326 48.8359C7.00288 48.8359 7.0904 48.2535 7.0904 48.2535V24.8493C7.0904 23.9484 6.35742 23.2154 5.45651 23.2154C5.45651 23.2154 4.65392 23.2154 4.38625 23.2154C3.96002 23.2154 4.31933 22.8685 4.31933 22.8685L16.1575 13.6511C16.1575 13.6511 16.4153 13.436 16.5901 13.6303C17.146 14.249 18.8698 16.3017 19.5204 17.0611C19.8253 17.4171 19.4653 17.6702 19.4653 17.6702L10.3286 23.5284C9.93222 23.7825 9.81685 24.3098 10.071 24.7062C10.2338 24.9601 10.5086 25.0987 10.7895 25.0987C10.9469 25.0987 11.1063 25.0549 11.2487 24.9637C11.2487 24.9637 16.2271 21.8231 17.8547 20.7279C18.2267 20.4777 18.1965 20.7903 18.1965 20.7903L16.352 24.018C15.9388 24.7415 16.1273 25.7124 16.7813 26.2284L24.3742 32.2203C24.6551 32.4416 24.9485 32.554 25.2464 32.554C25.6192 32.554 25.9684 32.3734 26.1804 32.0709C26.3472 31.8327 26.5014 31.4253 26.2875 30.8373L24.0753 24.7535C24.0757 24.7349 24.0792 24.7095 24.0842 24.6916L28.543 18.5932C28.9638 18.0174 29.0296 17.1408 28.6996 16.5087C28.6996 16.5087 27.5591 14.2893 27.1597 13.5599C26.7632 12.8353 27.3979 13.2524 27.3979 13.2524L43.0415 24.9294C43.1945 25.0437 43.3734 25.0988 43.5507 25.0988C43.8106 25.0988 44.0672 24.9804 44.2347 24.7562C44.5163 24.379 44.4387 23.8448 44.0613 23.5632L25.4646 9.68147C25.4646 9.68147 25.2153 9.5249 25.3767 9.23193C25.7582 8.54002 26.7513 6.59172 27.1494 5.86386C27.3255 5.54163 27.6532 5.71695 27.6532 5.71695L49.5147 22.7389C49.5147 22.7389 49.9455 23.2154 49.3298 23.2154C49.1332 23.2154 48.5437 23.2154 48.5437 23.2154Z" fill="#34495E"/>
</g>
<defs>
<clipPath id="clip0">
<rect width="54" height="54" fill="white"/>
</clipPath>
</defs>
</svg>
