<svg width="52" height="52" viewBox="0 0 52 52" fill="none" xmlns="http://www.w3.org/2000/svg">
<path d="M46.4141 10.2578H36.2387L35.2492 7.28914C34.626 5.41988 32.8835 4.16406 30.9133 4.16406H21.0867C19.1165 4.16406 17.374 5.41988 16.7509 7.28914L15.7613 10.2578H13.3047V7.71875C13.3047 5.7587 11.7101 4.16406 9.75 4.16406H7.71875C5.7587 4.16406 4.16406 5.7587 4.16406 7.71875V10.4418C1.77044 11.0723 0 13.2549 0 15.8438V42.25C0 45.3301 2.50585 47.8359 5.58594 47.8359H46.4141C49.4941 47.8359 52 45.3301 52 42.25V15.8438C52 12.7637 49.4941 10.2578 46.4141 10.2578ZM7.21094 7.71875C7.21094 7.43874 7.43874 7.21094 7.71875 7.21094H9.75C10.03 7.21094 10.2578 7.43874 10.2578 7.71875V10.2578H7.21094V7.71875ZM48.9531 42.25C48.9531 43.65 47.8141 44.7891 46.4141 44.7891H5.58594C4.1859 44.7891 3.04688 43.65 3.04688 42.25V15.8438C3.04688 14.4437 4.1859 13.3047 5.58594 13.3047H16.8594C17.5151 13.3047 18.0972 12.8851 18.3046 12.263L19.6414 8.25266C19.8492 7.62958 20.4299 7.21094 21.0867 7.21094H30.9133C31.5701 7.21094 32.1509 7.62958 32.3585 8.25256L33.6953 12.263C33.9028 12.8851 34.4849 13.3047 35.1406 13.3047H46.4141C47.8141 13.3047 48.9531 14.4437 48.9531 15.8438V42.25Z" fill="#34495E"/>
<path d="M44.2812 19.3984C45.1226 19.3984 45.8047 18.7164 45.8047 17.875C45.8047 17.0336 45.1226 16.3516 44.2812 16.3516C43.4399 16.3516 42.7578 17.0336 42.7578 17.875C42.7578 18.7164 43.4399 19.3984 44.2812 19.3984Z" fill="#34495E"/>
<path d="M10.7656 16.3516H7.71875C6.87741 16.3516 6.19531 17.0337 6.19531 17.875C6.19531 18.7163 6.87741 19.3984 7.71875 19.3984H10.7656C11.607 19.3984 12.2891 18.7163 12.2891 17.875C12.2891 17.0337 11.607 16.3516 10.7656 16.3516Z" fill="#34495E"/>
<path d="M26 41.7422C18.4398 41.7422 12.2891 35.5915 12.2891 28.0312C12.2891 20.471 18.4398 14.3203 26 14.3203C33.5602 14.3203 39.7109 20.471 39.7109 28.0312C39.7109 35.5915 33.5602 41.7422 26 41.7422ZM26 17.3672C20.1198 17.3672 15.3359 22.1511 15.3359 28.0312C15.3359 33.9114 20.1198 38.6953 26 38.6953C31.8802 38.6953 36.6641 33.9114 36.6641 28.0312C36.6641 22.1511 31.8802 17.3672 26 17.3672Z" fill="#34495E"/>
<path d="M26 35.6484C21.7999 35.6484 18.3828 32.2314 18.3828 28.0312C18.3828 23.8311 21.7999 20.4141 26 20.4141C30.2001 20.4141 33.6172 23.8311 33.6172 28.0312C33.6172 32.2314 30.2001 35.6484 26 35.6484ZM26 23.4609C23.4799 23.4609 21.4297 25.5112 21.4297 28.0312C21.4297 30.5513 23.4799 32.6016 26 32.6016C28.5201 32.6016 30.5703 30.5513 30.5703 28.0312C30.5703 25.5112 28.5201 23.4609 26 23.4609Z" fill="#34495E"/>
</svg>
