<svg width="33" height="33" viewBox="0 0 33 33" fill="none" xmlns="http://www.w3.org/2000/svg">
<path d="M30.7597 8.44087H27.7404L27.0468 5.30645C26.7506 3.9675 25.5859 3.03235 24.2146 3.03235H13.7326C12.3613 3.03235 11.1966 3.96743 10.9003 5.30638L10.2067 8.44087H9.49021V7.10347C9.49021 6.34982 8.877 5.73661 8.12329 5.73661H3.70361C2.94989 5.73661 2.33668 6.34982 2.33668 7.10347V8.44087H2.2402C1.00495 8.44087 0 9.44582 0 10.6811V25.8538C0 27.0892 1.00495 28.0941 2.24026 28.0941H4.53138H12.6298C14.4586 29.2788 16.637 29.9676 18.9735 29.9676C21.31 29.9676 23.4885 29.2788 25.3172 28.0941H30.7597C31.995 28.0941 33 27.0892 33 25.8538V10.6811C33 9.44582 31.995 8.44087 30.7597 8.44087ZM12.1588 5.58489C12.3235 4.84097 12.9706 4.32135 13.7325 4.32135H24.2145C24.9764 4.32135 25.6235 4.8409 25.7881 5.58489L26.4202 8.44087H25.3172C23.4884 7.25622 21.31 6.56741 18.9735 6.56741C16.637 6.56741 14.4586 7.25622 12.6298 8.44087H11.5268L12.1588 5.58489ZM3.62575 7.10347C3.62575 7.06054 3.66068 7.02567 3.70361 7.02567H8.12322C8.16615 7.02567 8.20108 7.0606 8.20108 7.10347V8.44087H3.62575V7.10347ZM5.17591 26.805V19.8043C5.17591 19.4483 4.88735 19.1597 4.53138 19.1597C4.1754 19.1597 3.88685 19.4483 3.88685 19.8043V26.805H2.24026C1.71581 26.805 1.28906 26.3783 1.28906 25.8538V10.6811C1.28906 10.1566 1.71581 9.72993 2.24026 9.72993H2.98128H8.84561H10.7241H10.9824C8.70137 11.8663 7.27341 14.9031 7.27341 18.2675C7.27341 21.6318 8.70137 24.6686 10.9824 26.805H5.17591ZM24.9245 26.805C24.1562 27.3422 23.3124 27.7782 22.4125 28.0941C21.3353 28.4722 20.1781 28.6785 18.9735 28.6785C17.7689 28.6785 16.6116 28.4721 15.5346 28.0941C14.6346 27.7782 13.7909 27.3422 13.0226 26.805C10.3284 24.9214 8.56247 21.797 8.56247 18.2675C8.56247 14.738 10.3284 11.6136 13.0226 9.73C13.7908 9.19284 14.6346 8.75682 15.5346 8.44093C16.6117 8.06285 17.7689 7.85654 18.9735 7.85654C20.1781 7.85654 21.3354 8.06292 22.4125 8.44093C23.3124 8.75682 24.1561 9.19284 24.9245 9.73C27.6187 11.6136 29.3846 14.738 29.3846 18.2675C29.3846 21.797 27.6187 24.9214 24.9245 26.805ZM31.7109 25.8538C31.7109 26.3783 31.2843 26.805 30.7597 26.805H26.9646C29.2457 24.6686 30.6736 21.6318 30.6736 18.2675C30.6736 14.9031 29.2457 11.8663 26.9646 9.72993H27.2229H30.7597C31.2843 9.72993 31.7109 10.1566 31.7109 10.6811V25.8538Z" fill="#34495E"/>
<path d="M18.9737 9.80542C14.3078 9.80542 10.5117 13.6015 10.5117 18.2675C10.5117 22.9334 14.3078 26.7295 18.9737 26.7295C19.6536 26.7295 20.3302 26.6485 20.985 26.4889C21.3308 26.4045 21.5427 26.0558 21.4584 25.71C21.3741 25.3641 21.0254 25.1521 20.6796 25.2365C20.1247 25.3719 19.5508 25.4405 18.9737 25.4405C15.0185 25.4405 11.8008 22.2227 11.8008 18.2675C11.8008 14.3124 15.0185 11.0945 18.9737 11.0945C22.9289 11.0945 26.1466 14.3123 26.1466 18.2675C26.1466 19.7091 25.721 21.099 24.9155 22.2871C24.7158 22.5817 24.7927 22.9825 25.0873 23.1823C25.3818 23.382 25.7827 23.3051 25.9825 23.0104C26.9332 21.6081 27.4357 19.9681 27.4357 18.2676C27.4357 13.6015 23.6397 9.80542 18.9737 9.80542Z" fill="#34495E"/>
<path d="M4.53126 11.9578C3.20791 11.9578 2.13135 13.0344 2.13135 14.3577C2.13135 15.681 3.20797 16.7576 4.53126 16.7576C5.85455 16.7576 6.93117 15.681 6.93117 14.3577C6.93117 13.0344 5.85455 11.9578 4.53126 11.9578ZM4.53126 15.4686C3.91876 15.4686 3.42041 14.9702 3.42041 14.3577C3.42041 13.7452 3.91876 13.2469 4.53126 13.2469C5.14376 13.2469 5.64211 13.7452 5.64211 14.3577C5.64211 14.9702 5.14382 15.4686 4.53126 15.4686Z" fill="#34495E"/>
<path d="M24.1757 24.4839C24.1672 24.4432 24.155 24.4026 24.1389 24.3633C24.1228 24.3247 24.1028 24.2873 24.0796 24.2525C24.0564 24.217 24.0293 24.1842 23.9997 24.1545C23.97 24.1249 23.9366 24.0978 23.9017 24.0739C23.8662 24.0507 23.8289 24.0308 23.7902 24.0146C23.7515 23.9985 23.711 23.9863 23.6697 23.9779C23.5866 23.9611 23.5009 23.9611 23.4177 23.9779C23.3764 23.9863 23.3358 23.9985 23.2972 24.0146C23.2584 24.0308 23.2211 24.0507 23.1857 24.0739C23.1509 24.0978 23.118 24.1249 23.0877 24.1545C23.0581 24.1842 23.031 24.217 23.0078 24.2525C22.9846 24.2873 22.9646 24.3247 22.9485 24.3633C22.9324 24.4026 22.9201 24.4432 22.9118 24.4839C22.9034 24.5257 22.8989 24.5683 22.8989 24.6102C22.8989 24.6521 22.9034 24.6946 22.9118 24.7359C22.9201 24.7771 22.9324 24.8177 22.9485 24.8564C22.9646 24.8957 22.9846 24.9331 23.0078 24.9679C23.031 25.0033 23.0581 25.0362 23.0877 25.0659C23.118 25.0955 23.1508 25.1226 23.1857 25.1458C23.2212 25.169 23.2585 25.189 23.2972 25.2051C23.3359 25.2212 23.3764 25.2334 23.4177 25.2418C23.4595 25.2502 23.5015 25.2547 23.5434 25.2547C23.5859 25.2547 23.6278 25.2502 23.6697 25.2418C23.711 25.2334 23.7516 25.2212 23.7902 25.2051C23.8289 25.189 23.8663 25.169 23.9017 25.1458C23.9365 25.1226 23.97 25.0955 23.9997 25.0659C24.1195 24.946 24.1879 24.7797 24.1879 24.6102C24.1879 24.5683 24.184 24.5257 24.1757 24.4839Z" fill="#34495E"/>
</svg>
