<svg width="63" height="63" viewBox="0 0 63 63" fill="none" xmlns="http://www.w3.org/2000/svg">
<circle cx="31.5" cy="31.5" r="30.5" fill="#FFBF43" stroke="#FFA801" stroke-width="2"/>
<g clip-path="url(#clip0)">
<path d="M47.8812 40.9001L45.9646 35.3221C46.8885 33.4335 47.3767 31.3331 47.38 29.2198C47.3856 25.5451 45.9639 22.0706 43.3766 19.4364C40.7889 16.8017 37.3405 15.3185 33.6666 15.2603C29.8571 15.2001 26.2764 16.6492 23.5843 19.3411C20.9886 21.9369 19.5488 25.3589 19.5032 29.0157C16.9448 30.942 15.4347 33.9452 15.4397 37.1529C15.4421 38.654 15.78 40.1462 16.4202 41.4955L15.1 45.3375C14.873 45.9979 15.0388 46.715 15.5326 47.2089C15.8802 47.5565 16.3384 47.7415 16.8096 47.7415C17.0079 47.7415 17.2084 47.7088 17.4041 47.6415L21.246 46.3213C22.5954 46.9616 24.0875 47.2994 25.5886 47.3018C25.5941 47.3018 25.5992 47.3018 25.6046 47.3018C28.8602 47.3017 31.8862 45.7527 33.8055 43.1315C35.8027 43.079 37.7788 42.5955 39.5652 41.7216L45.1432 43.6383C45.3757 43.7181 45.614 43.7571 45.8496 43.7571C46.4096 43.7571 46.9541 43.5371 47.3671 43.124C47.9539 42.5372 48.1509 41.685 47.8812 40.9001ZM25.6045 45.3375C25.6003 45.3375 25.5959 45.3375 25.5917 45.3375C24.263 45.3355 22.9436 45.008 21.7763 44.3904C21.5363 44.2635 21.2545 44.2415 20.9978 44.3297L17.0583 45.6834L18.412 41.7439C18.5001 41.4872 18.4782 41.2054 18.3513 40.9654C17.7337 39.798 17.4061 38.4787 17.4041 37.15C17.4008 35.0128 18.2321 32.9871 19.686 31.4702C20.1609 34.3652 21.5407 37.0329 23.6793 39.1336C25.8022 41.2187 28.4707 42.5463 31.35 42.9803C29.8297 44.4788 27.7803 45.3375 25.6045 45.3375ZM45.978 41.735C45.9222 41.7909 45.8559 41.8061 45.7814 41.7805L39.8099 39.7285C39.7062 39.6929 39.5983 39.6752 39.4908 39.6752C39.3323 39.6752 39.1744 39.7136 39.0315 39.7893C37.3266 40.6912 35.3999 41.1696 33.4597 41.1726C33.4534 41.1726 33.4476 41.1726 33.4412 41.1726C26.9402 41.1726 21.5704 35.8916 21.4674 29.3922C21.4156 26.119 22.6607 23.0427 24.9733 20.73C27.286 18.4174 30.3628 17.1727 33.6356 17.2243C40.1412 17.3275 45.4258 22.7072 45.4157 29.2167C45.4127 31.1568 44.9344 33.0835 44.0325 34.7884C43.9055 35.0284 43.8836 35.3101 43.9717 35.5669L46.0236 41.5383C46.0492 41.6131 46.0339 41.6793 45.978 41.735Z" fill="#34495E"/>
<path d="M39.2919 23.9919H27.5898C27.0474 23.9919 26.6077 24.4317 26.6077 24.9741C26.6077 25.5165 27.0474 25.9562 27.5898 25.9562H39.2919C39.8344 25.9562 40.2741 25.5165 40.2741 24.9741C40.2741 24.4317 39.8344 23.9919 39.2919 23.9919Z" fill="#34495E"/>
<path d="M39.2919 28.0312H27.5898C27.0474 28.0312 26.6077 28.471 26.6077 29.0134C26.6077 29.5558 27.0474 29.9955 27.5898 29.9955H39.2919C39.8344 29.9955 40.2741 29.5558 40.2741 29.0134C40.2741 28.471 39.8344 28.0312 39.2919 28.0312Z" fill="#34495E"/>
<path d="M34.7874 32.0706H27.5897C27.0472 32.0706 26.6075 32.5103 26.6075 33.0527C26.6075 33.5951 27.0473 34.0348 27.5897 34.0348H34.7873C35.3298 34.0348 35.7695 33.5951 35.7695 33.0527C35.7695 32.5103 35.3298 32.0706 34.7874 32.0706Z" fill="#34495E"/>
</g>
<defs>
<clipPath id="clip0">
<rect width="33" height="33" fill="white" transform="translate(15 15)"/>
</clipPath>
</defs>
</svg>
