<svg width="28" height="28" viewBox="0 0 28 28" fill="none" xmlns="http://www.w3.org/2000/svg">
<g clip-path="url(#clip0)">
<path d="M27.8992 21.9758L26.273 17.243C27.0569 15.6406 27.4711 13.8584 27.4739 12.0652C27.4787 8.94734 26.2724 5.99929 24.0772 3.76421C21.8815 1.52869 18.9556 0.270273 15.8384 0.22089C12.606 0.169812 9.56782 1.3993 7.28369 3.68338C5.0812 5.88582 3.85959 8.78934 3.82092 11.8921C1.65015 13.5265 0.368875 16.0747 0.373086 18.7964C0.375109 20.0701 0.661782 21.3362 1.20499 22.481L0.0848275 25.7409C-0.107728 26.3012 0.0329289 26.9097 0.451945 27.3287C0.746821 27.6236 1.1356 27.7807 1.53542 27.7807C1.70364 27.7807 1.87382 27.7529 2.0398 27.6958L5.29967 26.5757C6.44456 27.1189 7.71063 27.4056 8.98431 27.4076C8.9889 27.4076 8.99328 27.4076 8.99787 27.4076C11.7601 27.4075 14.3277 26.0932 15.9562 23.8692C17.6508 23.8246 19.3274 23.4143 20.8432 22.6728L25.5761 24.2991C25.7733 24.3669 25.9755 24.3999 26.1754 24.3999C26.6505 24.3999 27.1125 24.2133 27.463 23.8628C27.9609 23.3648 28.128 22.6418 27.8992 21.9758ZM8.99776 25.7409C8.99421 25.7409 8.99043 25.7409 8.98688 25.7409C7.85955 25.7392 6.74004 25.4613 5.74959 24.9373C5.54593 24.8296 5.30684 24.811 5.08907 24.8858L1.7464 26.0344L2.89501 22.6918C2.96982 22.4739 2.95122 22.2348 2.84349 22.0312C2.31947 21.0407 2.04155 19.9213 2.0398 18.7939C2.03701 16.9805 2.74243 15.2617 3.97602 13.9747C4.37895 16.4311 5.54965 18.6946 7.3643 20.477C9.16554 22.2462 11.4297 23.3726 13.8727 23.7409C12.5828 25.0123 10.8439 25.7409 8.99776 25.7409ZM26.2844 22.6843C26.237 22.7317 26.1808 22.7446 26.1176 22.7228L21.0509 20.9818C20.9629 20.9515 20.8713 20.9366 20.7801 20.9366C20.6456 20.9366 20.5116 20.9691 20.3904 21.0333C18.9437 21.7986 17.309 22.2045 15.6628 22.207C15.6574 22.207 15.6525 22.207 15.6471 22.207C10.1311 22.207 5.57492 17.7262 5.48753 12.2116C5.4435 9.43427 6.49996 6.82409 8.4622 4.86184C10.4245 2.8996 13.0351 1.84353 15.812 1.88728C21.3319 1.97483 25.8158 6.53944 25.8073 12.0626C25.8047 13.7088 25.3988 15.3436 24.6336 16.7901C24.5259 16.9937 24.5073 17.2328 24.5821 17.4507L26.3231 22.5174C26.3448 22.5808 26.3318 22.637 26.2844 22.6843Z" fill="#34495E"/>
<path d="M20.6115 7.62964H10.6825C10.2222 7.62964 9.84912 8.00277 9.84912 8.46297C9.84912 8.92322 10.2223 9.2963 10.6825 9.2963H20.6115C21.0718 9.2963 21.4449 8.92316 21.4449 8.46297C21.4449 8.00277 21.0718 7.62964 20.6115 7.62964Z" fill="#34495E"/>
<path d="M20.6115 11.0569H10.6825C10.2222 11.0569 9.84912 11.43 9.84912 11.8902C9.84912 12.3504 10.2223 12.7235 10.6825 12.7235H20.6115C21.0718 12.7235 21.4449 12.3504 21.4449 11.8902C21.4449 11.43 21.0718 11.0569 20.6115 11.0569Z" fill="#34495E"/>
<path d="M16.7891 14.484H10.682C10.2217 14.484 9.84863 14.8571 9.84863 15.3173C9.84863 15.7776 10.2218 16.1507 10.682 16.1507H16.789C17.2493 16.1507 17.6224 15.7775 17.6224 15.3173C17.6224 14.8571 17.2494 14.484 16.7891 14.484Z" fill="#34495E"/>
</g>
<defs>
<clipPath id="clip0">
<rect width="28" height="28" fill="white"/>
</clipPath>
</defs>
</svg>
