<svg width="63" height="63" viewBox="0 0 63 63" fill="none" xmlns="http://www.w3.org/2000/svg">
<path d="M62 29.5C62 45.1793 48.4075 58 31.5 58C14.5925 58 1 45.1793 1 29.5C1 13.8207 14.5925 1 31.5 1C48.4075 1 62 13.8207 62 29.5Z" fill="white" stroke="#34495E" stroke-width="2"/>
<g clip-path="url(#clip0)">
<path d="M47.6551 26.1113C47.6551 26.1113 44.7468 23.8809 44.7468 23.8714C44.7468 23.8714 44.504 23.6351 44.504 23.1576C44.504 21.935 44.504 18.2673 44.504 18.2673C44.504 17.7167 44.0561 17.2688 43.5055 17.2688H39.9154C39.3648 17.2688 38.9169 17.7167 38.9169 18.2673C38.9169 18.2673 38.9169 18.8826 38.9169 19.0877C38.9169 19.3156 38.7927 19.2109 38.7927 19.2109L32.1739 14.0573C32.0027 13.924 31.8007 13.8535 31.5897 13.8535C31.244 13.8535 30.9269 14.0484 30.762 14.3621L29.2124 17.3095C29.0238 17.6683 29.0231 18.1699 29.2107 18.5291L31.2124 22.3626C31.2124 22.3626 31.3589 22.5605 31.1597 22.9108C30.6351 23.8334 28.6541 26.338 28.6541 26.338C28.4126 26.6682 28.3416 27.1672 28.4814 27.5517L29.013 29.0137C29.013 29.0137 29.1846 29.4812 28.8531 29.2086C28.2078 28.6779 27.0832 27.828 26.5051 27.353C26.1892 27.0935 26.4341 26.7808 26.4341 26.7808L28.4106 23.3224C28.642 22.9172 28.59 22.3656 28.2871 22.0109L25.851 19.1586C25.6589 18.9336 25.3771 18.8045 25.0781 18.8045C24.853 18.8045 24.6323 18.88 24.4563 19.017L15.3449 26.1113C14.991 26.3867 14.954 26.7444 15.0374 26.9872C15.1208 27.2301 15.3696 27.4897 15.8181 27.4897H17.825C17.825 27.4897 18.0304 27.4698 18.0304 27.6797C18.0304 31.2968 18.0304 42.1482 18.0304 42.1482C18.0304 42.6988 18.4784 43.1467 19.0289 43.1467H27.9391C28.4897 43.1467 28.9376 42.6988 28.9376 42.1482V37.8837C28.9376 37.6847 28.9322 37.3631 28.9253 37.1693C28.925 37.1562 28.8988 35.8428 29.6722 35.0485C30.0843 34.625 30.6496 34.4193 31.4001 34.4193C32.1963 34.4193 32.8242 34.6443 33.2662 35.0882C34.0626 35.888 34.0665 37.1707 34.0665 37.1808C34.0641 37.3742 34.0621 37.6903 34.0621 37.8836V42.1481C34.0621 42.6987 34.51 43.1466 35.0606 43.1466H43.9708C44.5214 43.1466 44.9693 42.6987 44.9693 42.1481C44.9693 42.1481 44.9693 31.3728 44.9693 27.7809C44.9693 27.4662 45.2395 27.4897 45.2395 27.4897H47.1817C47.6301 27.4897 47.879 27.2302 47.9623 26.9872C48.0459 26.7444 48.0089 26.3867 47.6551 26.1113ZM40.2194 18.7511C40.2194 18.5775 40.3929 18.5711 40.3929 18.5711H42.9757C42.9757 18.5711 43.2017 18.5631 43.2017 18.8018C43.2017 19.6647 43.2017 21.3326 43.2017 22.2531C43.2017 22.6366 42.9814 22.472 42.9814 22.472L40.2536 20.3482C40.2407 20.3314 40.2194 20.2977 40.2194 20.1784C40.2194 20.1784 40.2194 19.1329 40.2194 18.7511ZM44.6656 26.1873C44.115 26.1873 43.6671 26.6352 43.6671 27.1858V41.5209C43.6671 41.5209 43.7097 41.8443 43.3516 41.8443C41.4496 41.8443 37.7245 41.8443 35.7436 41.8443C35.3637 41.8443 35.3647 41.4884 35.3647 41.4884V37.8835C35.3647 37.6946 35.3667 37.3858 35.3689 37.197C35.3699 37.123 35.3778 35.3724 34.199 34.179C33.5029 33.4742 32.5612 33.1168 31.4002 33.1168C30.2904 33.1168 29.3921 33.464 28.7305 34.1488C27.5734 35.3465 27.6213 37.136 27.6239 37.2117C27.6301 37.3926 27.6354 37.7002 27.6354 37.8835V41.5969C27.6354 41.5969 27.6581 41.8443 27.2565 41.8443C25.2756 41.8443 21.5994 41.8443 19.7136 41.8443C19.2795 41.8443 19.333 41.4884 19.333 41.4884V27.1858C19.333 26.6352 18.8851 26.1873 18.3345 26.1873C18.3345 26.1873 17.844 26.1873 17.6805 26.1873C17.42 26.1873 17.6396 25.9753 17.6396 25.9753L24.874 20.3425C24.874 20.3425 25.0316 20.211 25.1384 20.3298C25.4781 20.7078 26.5315 21.9623 26.9291 22.4263C27.1154 22.6439 26.8954 22.7985 26.8954 22.7985L21.3119 26.3786C21.0697 26.5338 20.9992 26.8561 21.1545 27.0984C21.254 27.2535 21.4219 27.3382 21.5936 27.3382C21.6898 27.3382 21.7872 27.3114 21.8742 27.2557C21.8742 27.2557 24.9165 25.3364 25.9112 24.6672C26.1385 24.5143 26.1201 24.7053 26.1201 24.7053L24.9928 26.6778C24.7403 27.1199 24.8556 27.7133 25.2552 28.0286L29.8953 31.6903C30.067 31.8255 30.2463 31.8942 30.4283 31.8942C30.6562 31.8942 30.8696 31.7839 30.9991 31.599C31.101 31.4534 31.1952 31.2045 31.0646 30.8451L29.7126 27.1273C29.7129 27.1159 29.7151 27.1004 29.7181 27.0894L32.4429 23.3626C32.7001 23.0107 32.7403 22.475 32.5386 22.0888C32.5386 22.0888 31.8417 20.7325 31.5976 20.2867C31.3553 19.8439 31.7431 20.0988 31.7431 20.0988L41.3031 27.2348C41.3966 27.3046 41.5059 27.3383 41.6143 27.3383C41.7731 27.3383 41.9299 27.2659 42.0323 27.1289C42.2044 26.8984 42.157 26.572 41.9263 26.3999L30.5617 17.9166C30.5617 17.9166 30.4093 17.8209 30.5079 17.6419C30.7411 17.219 31.348 16.0284 31.5913 15.5836C31.6989 15.3867 31.8991 15.4938 31.8991 15.4938L45.2589 25.8961C45.2589 25.8961 45.5222 26.1873 45.146 26.1873C45.0258 26.1873 44.6656 26.1873 44.6656 26.1873Z" fill="#34495E"/>
</g>
<circle cx="44" cy="42" r="7" fill="#F5EBD6" fill-opacity="0.17"/>
<path d="M44 34C39.5885 34 36 37.5885 36 42C36 46.4115 39.5885 50 44 50C48.4115 50 52 46.4108 52 42C52 37.5892 48.4115 34 44 34ZM44 48.7607C40.2727 48.7607 37.2393 45.728 37.2393 42C37.2393 38.272 40.2727 35.2393 44 35.2393C47.7273 35.2393 50.7607 38.272 50.7607 42C50.7607 45.728 47.728 48.7607 44 48.7607Z" fill="#34495E"/>
<path d="M47.0984 41.3244H44.6197V38.8458C44.6197 38.5037 44.3427 38.2261 44 38.2261C43.6573 38.2261 43.3803 38.5037 43.3803 38.8458V41.3244H40.9016C40.559 41.3244 40.282 41.6021 40.282 41.9441C40.282 42.2862 40.559 42.5638 40.9016 42.5638H43.3803V45.0425C43.3803 45.3846 43.6573 45.6622 44 45.6622C44.3427 45.6622 44.6197 45.3846 44.6197 45.0425V42.5638H47.0984C47.4411 42.5638 47.7181 42.2862 47.7181 41.9441C47.7181 41.6021 47.4411 41.3244 47.0984 41.3244Z" fill="#34495E"/>
<circle cx="31.5" cy="31.5" r="30.5" fill="white" stroke="#34495E" stroke-width="2"/>
<g clip-path="url(#clip1)">
<path d="M47.6551 28.1113C47.6551 28.1113 44.7468 25.8809 44.7468 25.8714C44.7468 25.8714 44.504 25.6351 44.504 25.1576C44.504 23.935 44.504 20.2673 44.504 20.2673C44.504 19.7167 44.0561 19.2688 43.5055 19.2688H39.9154C39.3648 19.2688 38.9169 19.7167 38.9169 20.2673C38.9169 20.2673 38.9169 20.8826 38.9169 21.0877C38.9169 21.3156 38.7927 21.2109 38.7927 21.2109L32.1739 16.0573C32.0027 15.924 31.8007 15.8535 31.5897 15.8535C31.244 15.8535 30.9269 16.0484 30.762 16.3621L29.2124 19.3095C29.0238 19.6683 29.0231 20.1699 29.2107 20.5291L31.2124 24.3626C31.2124 24.3626 31.3589 24.5605 31.1597 24.9108C30.6351 25.8334 28.6541 28.338 28.6541 28.338C28.4126 28.6682 28.3416 29.1672 28.4814 29.5517L29.013 31.0137C29.013 31.0137 29.1846 31.4812 28.8531 31.2086C28.2078 30.6779 27.0832 29.828 26.5051 29.353C26.1892 29.0935 26.4341 28.7808 26.4341 28.7808L28.4106 25.3224C28.642 24.9172 28.59 24.3656 28.2871 24.0109L25.851 21.1586C25.6589 20.9336 25.3771 20.8045 25.0781 20.8045C24.853 20.8045 24.6323 20.88 24.4563 21.017L15.3449 28.1113C14.991 28.3867 14.954 28.7444 15.0374 28.9872C15.1208 29.2301 15.3696 29.4897 15.8181 29.4897H17.825C17.825 29.4897 18.0304 29.4698 18.0304 29.6797C18.0304 33.2968 18.0304 44.1482 18.0304 44.1482C18.0304 44.6988 18.4784 45.1467 19.0289 45.1467H27.9391C28.4897 45.1467 28.9376 44.6988 28.9376 44.1482V39.8837C28.9376 39.6847 28.9322 39.3631 28.9253 39.1693C28.925 39.1562 28.8988 37.8428 29.6722 37.0485C30.0843 36.625 30.6496 36.4193 31.4001 36.4193C32.1963 36.4193 32.8242 36.6443 33.2662 37.0882C34.0626 37.888 34.0665 39.1707 34.0665 39.1808C34.0641 39.3742 34.0621 39.6903 34.0621 39.8836V44.1481C34.0621 44.6987 34.51 45.1466 35.0606 45.1466H43.9708C44.5214 45.1466 44.9693 44.6987 44.9693 44.1481C44.9693 44.1481 44.9693 33.3728 44.9693 29.7809C44.9693 29.4662 45.2395 29.4897 45.2395 29.4897H47.1817C47.6301 29.4897 47.879 29.2302 47.9623 28.9872C48.0459 28.7444 48.0089 28.3867 47.6551 28.1113ZM40.2194 20.7511C40.2194 20.5775 40.3929 20.5711 40.3929 20.5711H42.9757C42.9757 20.5711 43.2017 20.5631 43.2017 20.8018C43.2017 21.6647 43.2017 23.3326 43.2017 24.2531C43.2017 24.6366 42.9814 24.472 42.9814 24.472L40.2536 22.3482C40.2407 22.3314 40.2194 22.2977 40.2194 22.1784C40.2194 22.1784 40.2194 21.1329 40.2194 20.7511ZM44.6656 28.1873C44.115 28.1873 43.6671 28.6352 43.6671 29.1858V43.5209C43.6671 43.5209 43.7097 43.8443 43.3516 43.8443C41.4496 43.8443 37.7245 43.8443 35.7436 43.8443C35.3637 43.8443 35.3647 43.4884 35.3647 43.4884V39.8835C35.3647 39.6946 35.3667 39.3858 35.3689 39.197C35.3699 39.123 35.3778 37.3724 34.199 36.179C33.5029 35.4742 32.5612 35.1168 31.4002 35.1168C30.2904 35.1168 29.3921 35.464 28.7305 36.1488C27.5734 37.3465 27.6213 39.136 27.6239 39.2117C27.6301 39.3926 27.6354 39.7002 27.6354 39.8835V43.5969C27.6354 43.5969 27.6581 43.8443 27.2565 43.8443C25.2756 43.8443 21.5994 43.8443 19.7136 43.8443C19.2795 43.8443 19.333 43.4884 19.333 43.4884V29.1858C19.333 28.6352 18.8851 28.1873 18.3345 28.1873C18.3345 28.1873 17.844 28.1873 17.6805 28.1873C17.42 28.1873 17.6396 27.9753 17.6396 27.9753L24.874 22.3425C24.874 22.3425 25.0316 22.211 25.1384 22.3298C25.4781 22.7078 26.5315 23.9623 26.9291 24.4263C27.1154 24.6439 26.8954 24.7985 26.8954 24.7985L21.3119 28.3786C21.0697 28.5338 20.9992 28.8561 21.1545 29.0984C21.254 29.2535 21.4219 29.3382 21.5936 29.3382C21.6898 29.3382 21.7872 29.3114 21.8742 29.2557C21.8742 29.2557 24.9165 27.3364 25.9112 26.6672C26.1385 26.5143 26.1201 26.7053 26.1201 26.7053L24.9928 28.6778C24.7403 29.1199 24.8556 29.7133 25.2552 30.0286L29.8953 33.6903C30.067 33.8255 30.2463 33.8942 30.4283 33.8942C30.6562 33.8942 30.8696 33.7839 30.9991 33.599C31.101 33.4534 31.1952 33.2045 31.0646 32.8451L29.7126 29.1273C29.7129 29.1159 29.7151 29.1004 29.7181 29.0894L32.4429 25.3626C32.7001 25.0107 32.7403 24.475 32.5386 24.0888C32.5386 24.0888 31.8417 22.7325 31.5976 22.2867C31.3553 21.8439 31.7431 22.0988 31.7431 22.0988L41.3031 29.2348C41.3966 29.3046 41.5059 29.3383 41.6143 29.3383C41.7731 29.3383 41.9299 29.2659 42.0323 29.1289C42.2044 28.8984 42.157 28.572 41.9263 28.3999L30.5617 19.9166C30.5617 19.9166 30.4093 19.8209 30.5079 19.6419C30.7411 19.219 31.348 18.0284 31.5913 17.5836C31.6989 17.3867 31.8991 17.4938 31.8991 17.4938L45.2589 27.8961C45.2589 27.8961 45.5222 28.1873 45.146 28.1873C45.0258 28.1873 44.6656 28.1873 44.6656 28.1873Z" fill="#34495E"/>
</g>
<path d="M44 36C39.5885 36 36 39.5885 36 44C36 48.4115 39.5885 52 44 52C48.4115 52 52 48.4108 52 44C52 39.5892 48.4115 36 44 36ZM44 50.7607C40.2727 50.7607 37.2393 47.728 37.2393 44C37.2393 40.272 40.2727 37.2393 44 37.2393C47.7273 37.2393 50.7607 40.272 50.7607 44C50.7607 47.728 47.728 50.7607 44 50.7607Z" fill="#34495E"/>
<path d="M47.0984 43.3244H44.6197V40.8458C44.6197 40.5037 44.3427 40.2261 44 40.2261C43.6573 40.2261 43.3803 40.5037 43.3803 40.8458V43.3244H40.9016C40.559 43.3244 40.282 43.6021 40.282 43.9441C40.282 44.2862 40.559 44.5638 40.9016 44.5638H43.3803V47.0425C43.3803 47.3846 43.6573 47.6622 44 47.6622C44.3427 47.6622 44.6197 47.3846 44.6197 47.0425V44.5638H47.0984C47.4411 44.5638 47.7181 44.2862 47.7181 43.9441C47.7181 43.6021 47.4411 43.3244 47.0984 43.3244Z" fill="#34495E"/>
<circle cx="44" cy="44" r="7" fill="white"/>
<path d="M44 36C39.5885 36 36 39.5885 36 44C36 48.4115 39.5885 52 44 52C48.4115 52 52 48.4108 52 44C52 39.5892 48.4115 36 44 36ZM44 50.7607C40.2727 50.7607 37.2393 47.728 37.2393 44C37.2393 40.272 40.2727 37.2393 44 37.2393C47.7273 37.2393 50.7607 40.272 50.7607 44C50.7607 47.728 47.728 50.7607 44 50.7607Z" fill="#34495E"/>
<path d="M47.0984 43.3244H44.6197V40.8458C44.6197 40.5037 44.3427 40.2261 44 40.2261C43.6573 40.2261 43.3803 40.5037 43.3803 40.8458V43.3244H40.9016C40.559 43.3244 40.282 43.6021 40.282 43.9441C40.282 44.2862 40.559 44.5638 40.9016 44.5638H43.3803V47.0425C43.3803 47.3846 43.6573 47.6622 44 47.6622C44.3427 47.6622 44.6197 47.3846 44.6197 47.0425V44.5638H47.0984C47.4411 44.5638 47.7181 44.2862 47.7181 43.9441C47.7181 43.6021 47.4411 43.3244 47.0984 43.3244Z" fill="#34495E"/>
<defs>
<clipPath id="clip0">
<rect width="33" height="33" fill="white" transform="translate(15 12)"/>
</clipPath>
<clipPath id="clip1">
<rect width="33" height="33" fill="white" transform="translate(15 14)"/>
</clipPath>
</defs>
</svg>
