<svg width="63" height="63" viewBox="0 0 63 63" fill="none" xmlns="http://www.w3.org/2000/svg">
<circle cx="31.5" cy="31.5" r="30.5" fill="#FFBF43" stroke="#FFA801" stroke-width="2"/>
<g clip-path="url(#clip0)">
<path d="M38.9979 47.9999C38.7669 47.9999 38.5304 47.9711 38.2966 47.9092L17.035 42.2153C15.5775 41.8138 14.7085 40.3041 15.0908 38.8466L17.7734 28.8476C17.8724 28.4805 18.2491 28.2673 18.6149 28.3608C18.982 28.4584 19.1993 28.8366 19.1016 29.2023L16.4204 39.1986C16.2293 39.9273 16.6665 40.6863 17.3966 40.8884L38.65 46.5796C39.3801 46.7721 40.1336 46.3376 40.3234 45.6116L41.3973 41.6323C41.4963 41.2652 41.873 41.0466 42.2401 41.1469C42.6073 41.2459 42.8231 41.6241 42.7255 41.9898L41.653 45.9636C41.3299 47.1873 40.2161 47.9999 38.9979 47.9999Z" fill="#34495E"/>
<path d="M45.25 39.75H23.25C21.7334 39.75 20.5 38.5166 20.5 37V20.5C20.5 18.9834 21.7334 17.75 23.25 17.75H45.25C46.7666 17.75 48 18.9834 48 20.5V37C48 38.5166 46.7666 39.75 45.25 39.75ZM23.25 19.125C22.4924 19.125 21.875 19.7424 21.875 20.5V37C21.875 37.7576 22.4924 38.375 23.25 38.375H45.25C46.0076 38.375 46.625 37.7576 46.625 37V20.5C46.625 19.7424 46.0076 19.125 45.25 19.125H23.25Z" fill="#34495E"/>
<path d="M27.375 27.375C25.8584 27.375 24.625 26.1416 24.625 24.625C24.625 23.1084 25.8584 21.875 27.375 21.875C28.8916 21.875 30.125 23.1084 30.125 24.625C30.125 26.1416 28.8916 27.375 27.375 27.375ZM27.375 23.25C26.6174 23.25 26 23.8674 26 24.625C26 25.3826 26.6174 26 27.375 26C28.1326 26 28.75 25.3826 28.75 24.625C28.75 23.8674 28.1326 23.25 27.375 23.25Z" fill="#34495E"/>
<path d="M21.2837 38.2788C21.1077 38.2788 20.9317 38.2115 20.797 38.0781C20.5289 37.81 20.5289 37.3741 20.797 37.106L27.2911 30.6118C28.0694 29.8336 29.4292 29.8336 30.2075 30.6118L32.1407 32.5451L37.4923 26.1238C37.8814 25.6577 38.4534 25.3868 39.0625 25.3813H39.0776C39.6799 25.3813 40.2505 25.6426 40.6438 26.1005L47.835 34.4907C48.0825 34.7781 48.0495 35.2126 47.7608 35.4601C47.4734 35.7076 47.0403 35.676 46.7914 35.3858L39.6001 26.9956C39.4668 26.8416 39.2825 26.7563 39.0776 26.7563C38.9346 26.744 38.683 26.843 38.5496 27.0038L32.7155 34.004C32.5917 34.1525 32.4116 34.2418 32.2177 34.2501C32.0225 34.2638 31.8369 34.1868 31.7007 34.0493L29.2354 31.584C28.9755 31.3255 28.5231 31.3255 28.2632 31.584L21.7691 38.0781C21.6357 38.2115 21.4597 38.2788 21.2837 38.2788Z" fill="#34495E"/>
</g>
<defs>
<clipPath id="clip0">
<rect width="33" height="33" fill="white" transform="translate(15 15)"/>
</clipPath>
</defs>
</svg>
