<svg width="48" height="48" viewBox="0 0 48 48" fill="none" xmlns="http://www.w3.org/2000/svg">
<g clip-path="url(#clip0)">
<path d="M34.906 48C34.57 48 34.226 47.958 33.886 47.868L2.96 39.586C0.839995 39.002 -0.424006 36.806 0.131994 34.686L4.034 20.142C4.178 19.608 4.726 19.298 5.258 19.434C5.792 19.576 6.108 20.126 5.966 20.658L2.06599 35.198C1.78799 36.258 2.42399 37.362 3.486 37.656L34.4 45.934C35.462 46.214 36.558 45.582 36.834 44.526L38.396 38.738C38.54 38.204 39.088 37.886 39.622 38.032C40.156 38.176 40.47 38.726 40.328 39.258L38.768 45.038C38.298 46.818 36.678 48 34.906 48Z" fill="black"/>
<path d="M44 36H12C9.79401 36 8.00001 34.206 8.00001 32V8C8.00001 5.794 9.79401 4 12 4H44C46.206 4 48 5.794 48 8V32C48 34.206 46.206 36 44 36ZM12 6C10.898 6 10 6.898 10 8V32C10 33.102 10.898 34 12 34H44C45.102 34 46 33.102 46 32V8C46 6.898 45.102 6 44 6H12Z" fill="black"/>
<path d="M18 18C15.794 18 14 16.206 14 14C14 11.794 15.794 10 18 10C20.206 10 22 11.794 22 14C22 16.206 20.206 18 18 18ZM18 12C16.898 12 16 12.898 16 14C16 15.102 16.898 16 18 16C19.102 16 20 15.102 20 14C20 12.898 19.102 12 18 12Z" fill="black"/>
<path d="M9.14001 33.8601C8.88401 33.8601 8.62801 33.7621 8.43201 33.5681C8.04201 33.1781 8.04201 32.5441 8.43201 32.1541L17.878 22.7081C19.01 21.5761 20.988 21.5761 22.12 22.7081L24.932 25.5201L32.716 16.1801C33.282 15.5021 34.114 15.1081 35 15.1001H35.022C35.898 15.1001 36.728 15.4801 37.3 16.1461L47.76 28.3501C48.1201 28.7681 48.0721 29.4001 47.6521 29.7601C47.2341 30.1201 46.6041 30.0741 46.2421 29.6521L35.782 17.4481C35.588 17.2241 35.32 17.1001 35.022 17.1001C34.814 17.0821 34.448 17.2261 34.254 17.4601L25.768 27.6421C25.588 27.8581 25.326 27.9881 25.044 28.0001C24.76 28.0201 24.49 27.9081 24.292 27.7081L20.706 24.1221C20.328 23.7461 19.67 23.7461 19.292 24.1221L9.84601 33.5681C9.65201 33.7621 9.39601 33.8601 9.14001 33.8601Z" fill="black"/>
<g clip-path="url(#clip1)">
<path d="M34.906 48C34.57 48 34.226 47.958 33.886 47.868L2.96 39.586C0.839995 39.002 -0.424006 36.806 0.131994 34.686L4.034 20.142C4.178 19.608 4.726 19.298 5.258 19.434C5.792 19.576 6.108 20.126 5.966 20.658L2.06599 35.198C1.78799 36.258 2.42399 37.362 3.486 37.656L34.4 45.934C35.462 46.214 36.558 45.582 36.834 44.526L38.396 38.738C38.54 38.204 39.088 37.886 39.622 38.032C40.156 38.176 40.47 38.726 40.328 39.258L38.768 45.038C38.298 46.818 36.678 48 34.906 48Z" fill="#FFA801"/>
<path d="M44 36H12C9.79401 36 8.00001 34.206 8.00001 32V8C8.00001 5.794 9.79401 4 12 4H44C46.206 4 48 5.794 48 8V32C48 34.206 46.206 36 44 36ZM12 6C10.898 6 10 6.898 10 8V32C10 33.102 10.898 34 12 34H44C45.102 34 46 33.102 46 32V8C46 6.898 45.102 6 44 6H12Z" fill="#FFA801"/>
<path d="M18 18C15.794 18 14 16.206 14 14C14 11.794 15.794 10 18 10C20.206 10 22 11.794 22 14C22 16.206 20.206 18 18 18ZM18 12C16.898 12 16 12.898 16 14C16 15.102 16.898 16 18 16C19.102 16 20 15.102 20 14C20 12.898 19.102 12 18 12Z" fill="#FFA801"/>
<path d="M9.14001 33.8601C8.88401 33.8601 8.62801 33.7621 8.43201 33.5681C8.04201 33.1781 8.04201 32.5441 8.43201 32.1541L17.878 22.7081C19.01 21.5761 20.988 21.5761 22.12 22.7081L24.932 25.5201L32.716 16.1801C33.282 15.5021 34.114 15.1081 35 15.1001H35.022C35.898 15.1001 36.728 15.4801 37.3 16.1461L47.76 28.3501C48.1201 28.7681 48.0721 29.4001 47.6521 29.7601C47.2341 30.1201 46.6041 30.0741 46.2421 29.6521L35.782 17.4481C35.588 17.2241 35.32 17.1001 35.022 17.1001C34.814 17.0821 34.448 17.2261 34.254 17.4601L25.768 27.6421C25.588 27.8581 25.326 27.9881 25.044 28.0001C24.76 28.0201 24.49 27.9081 24.292 27.7081L20.706 24.1221C20.328 23.7461 19.67 23.7461 19.292 24.1221L9.84601 33.5681C9.65201 33.7621 9.39601 33.8601 9.14001 33.8601Z" fill="#FFA801"/>
</g>
</g>
<defs>
<clipPath id="clip0">
<rect width="48" height="48" fill="white"/>
</clipPath>
<clipPath id="clip1">
<rect width="48" height="48" fill="white"/>
</clipPath>
</defs>
</svg>
