<svg width="44" height="44" viewBox="0 0 44 44" fill="none" xmlns="http://www.w3.org/2000/svg">
<g clip-path="url(#clip0)">
<path d="M33.7703 17.1537C35.9153 15.3746 37.2839 12.6903 37.2839 9.69232C37.2838 4.34856 32.9362 0.000976562 27.5924 0.000976562C22.2485 0.000976562 17.901 4.34856 17.901 9.69232C17.901 10.3908 17.976 11.072 18.1171 11.729C17.5652 11.6311 16.9975 11.5798 16.4179 11.5798C11.0741 11.5798 6.72659 15.9273 6.72659 21.2711C6.72659 24.2689 8.09497 26.9529 10.2396 28.732C4.24007 31.178 0 37.0737 0 43.9421H3.43827C3.43827 36.7851 9.26088 30.9625 16.4178 30.9625C21.7617 30.9625 26.1092 26.615 26.1092 21.2712C26.1092 20.5727 26.0343 19.8914 25.8931 19.2344C26.445 19.3324 27.0127 19.3837 27.5923 19.3837C31.8099 19.3837 35.5627 21.407 37.9349 24.5327L40.2647 21.9386C38.5427 19.8488 36.3145 18.1914 33.7703 17.1537ZM16.4179 27.5242C12.97 27.5242 10.1649 24.7191 10.1649 21.2711C10.1649 17.8231 12.97 15.018 16.4179 15.018C19.8658 15.018 22.671 17.8232 22.671 21.2711C22.671 24.719 19.8658 27.5242 16.4179 27.5242ZM27.5924 15.9453C24.1445 15.9453 21.3393 13.1402 21.3393 9.69223C21.3393 6.24425 24.1445 3.43925 27.5924 3.43925C31.0403 3.43925 33.8455 6.24434 33.8455 9.69232C33.8455 13.1404 31.0404 15.9453 27.5924 15.9453Z" fill="#34495E"/>
<path d="M33.9604 17.1241C36.0545 15.3272 37.3839 12.6622 37.3839 9.69232C37.3838 4.29333 32.9915 -0.0990234 27.5924 -0.0990234C22.1933 -0.0990234 17.801 4.29333 17.801 9.69232C17.801 10.3471 17.8662 10.9868 17.9895 11.606C17.4776 11.523 16.9528 11.4798 16.4179 11.4798C11.0188 11.4798 6.62659 15.8721 6.62659 21.2711C6.62659 24.2407 7.95571 26.9055 10.0495 28.7024C4.09442 31.2003 -0.1 37.0899 -0.1 43.9421V44.0421H0H3.43827H3.53827V43.9421C3.53827 36.8403 9.31611 31.0625 16.4178 31.0625C21.8169 31.0625 26.2092 26.6702 26.2092 21.2712C26.2092 20.6164 26.144 19.9766 26.0207 19.3575C26.5326 19.4404 27.0575 19.4837 27.5923 19.4837C31.7772 19.4837 35.501 21.4912 37.8552 24.5931L37.9284 24.6896L38.0093 24.5995L40.3391 22.0054L40.3966 21.9414L40.3419 21.875C38.644 19.8144 36.4568 18.1716 33.9604 17.1241ZM16.4179 27.4242C13.0253 27.4242 10.2649 24.6639 10.2649 21.2711C10.2649 17.8784 13.0253 15.118 16.4179 15.118C19.8106 15.118 22.571 17.8784 22.571 21.2711C22.571 24.6638 19.8106 27.4242 16.4179 27.4242ZM27.5924 15.8453C24.1997 15.8453 21.4393 13.085 21.4393 9.69223C21.4393 6.29948 24.1997 3.53925 27.5924 3.53925C30.9851 3.53925 33.7455 6.29957 33.7455 9.69232C33.7455 13.0852 30.9851 15.8453 27.5924 15.8453Z" stroke="#34495E" stroke-opacity="0.95" stroke-width="0.2"/>
<path d="M41.4419 25.7728L29.4998 39.0691L22.7606 32.6539L20.3901 35.1444L29.693 43.9997L44 28.0704L41.4419 25.7728Z" fill="#33DE17"/>
</g>
<defs>
<clipPath id="clip0">
<rect width="44" height="44" fill="white"/>
</clipPath>
</defs>
</svg>
