<svg width="63" height="63" viewBox="0 0 63 63" fill="none" xmlns="http://www.w3.org/2000/svg">
<circle cx="31.5" cy="31.5" r="30.5" fill="white" stroke="#34495E" stroke-width="2"/>
<path d="M42.2176 26.6033C41.9658 26.3516 41.5577 26.3516 41.306 26.6033C41.0543 26.855 41.0543 27.2631 41.306 27.5148C41.3159 27.5247 41.3263 27.5349 41.3362 27.5441C41.4606 27.6606 41.6189 27.7182 41.7768 27.7182C41.9487 27.7182 42.1204 27.6497 42.2473 27.5143C42.4907 27.2546 42.4773 26.8466 42.2176 26.6033Z" fill="#34495E"/>
<path d="M40.9081 25.5449C40.5391 25.2943 40.1604 25.0709 39.7823 24.8805C37.6433 23.8042 35.3767 23.5882 33.2273 24.2557C32.8874 24.3613 32.6973 24.7224 32.803 25.0624C32.9085 25.4024 33.2696 25.5922 33.6097 25.4867C35.4339 24.9201 37.368 25.1087 39.2027 26.0319C39.5263 26.1949 39.8657 26.3954 40.1841 26.6114C40.295 26.6866 40.4209 26.7228 40.5455 26.7228C40.7518 26.7228 40.9547 26.6239 41.0793 26.4402C41.2793 26.1457 41.2026 25.7448 40.9081 25.5449Z" fill="#34495E"/>
<path d="M46.7718 33.8856C46.5076 33.3313 46.07 32.4134 46.0621 32.1097C46.8158 30.252 46.5409 28.1961 45.2855 26.3156C43.3549 23.4234 39.3981 21.3241 35.8773 21.3241C34.0161 21.3241 32.1988 21.768 30.5637 22.6152C30.0946 20.045 27.8406 18.0901 25.137 18.0901C22.0945 18.0901 19.6192 20.5653 19.6192 23.6078C19.6192 25.5435 20.6058 27.3036 22.2579 28.3158C22.7342 28.6076 22.842 28.8599 22.8803 29.2732V31.4739V33.0448C22.8803 33.7644 23.4657 34.3499 24.1851 34.3499H24.4043C24.7583 37.1714 26.1238 39.7331 28.2914 41.6182C28.3118 41.6818 28.3714 41.9803 28.1153 42.8709C27.9158 43.5646 27.6097 44.3353 27.3397 45.0153C27.1589 45.4702 27.0028 45.8632 26.9085 46.1603C26.8463 46.3562 26.8812 46.5701 27.0026 46.736C27.124 46.9019 27.3172 47 27.5228 47H36.7231C37.0254 47 37.4406 46.8647 37.7019 46.2198C37.8157 45.9392 37.89 45.6016 37.9686 45.2441C38.0452 44.8958 38.2248 44.08 38.4033 43.9815C38.4034 43.9815 38.4139 43.9797 38.4391 43.9836C38.4722 43.9889 38.5056 43.9914 38.5391 43.9914C39.5026 43.9914 40.2899 44.0351 40.9845 44.0736C43.0218 44.1866 44.2516 44.2549 45.3303 42.701C45.8789 41.9107 45.8168 40.7581 45.7509 39.5378C45.717 38.9089 45.682 38.2597 45.7442 37.72C45.8566 37.6093 46.1383 37.4159 46.3149 37.2947C46.9225 36.8773 47.4963 36.4833 47.4963 35.8842C47.4965 35.4289 47.2211 34.8281 46.7718 33.8856ZM22.9315 27.2165C21.6647 26.4405 20.9084 25.0915 20.9084 23.6078C20.9084 21.276 22.8054 19.3791 25.1371 19.3791C27.4689 19.3791 29.3659 21.2761 29.3659 23.6078C29.3659 25.0915 28.6096 26.4405 27.3428 27.2166C26.7407 27.5856 26.3829 28.016 26.213 28.5975L25.1369 28.5971L24.0613 28.5975C23.8914 28.016 23.5336 27.5856 22.9315 27.2165ZM26.1049 29.8866V30.8293H24.1695V29.8866H26.1049ZM24.1853 33.0608C24.1781 33.0608 24.1695 33.0519 24.1695 33.0447V32.1183H26.1049V33.0447C26.1049 33.052 26.0962 33.0608 26.0889 33.0608H24.1853ZM45.5854 36.2319C45.0306 36.6129 44.5515 36.9419 44.4808 37.4397C44.3838 38.1227 44.4245 38.8774 44.4638 39.6071C44.5127 40.5125 44.568 41.5387 44.2715 41.9658C43.6302 42.8897 43.0755 42.8986 41.056 42.7864C40.3897 42.7494 39.5629 42.7036 38.5826 42.7022C38.2062 42.6578 37.5692 42.7285 37.1441 43.5548C36.9282 43.9744 36.8122 44.5017 36.7098 44.9669C36.6584 45.2006 36.5861 45.5291 36.5185 45.7108H28.4506C28.4789 45.6396 28.508 45.5662 28.5379 45.4909C29.4664 43.153 30.0545 41.4383 29.1594 40.6645C27.2621 39.0236 26.0522 36.8017 25.7053 34.3499H26.089C26.8086 34.3499 27.394 33.7644 27.394 33.0447V31.4738V29.2745C27.4322 28.8604 27.5397 28.6079 28.0164 28.3157C29.542 27.381 30.4993 25.8086 30.6371 24.0491C32.219 23.109 34.0234 22.6131 35.8773 22.6131C38.9484 22.6131 42.5322 24.5125 44.2134 27.0312C44.934 28.1106 45.63 29.79 44.8535 31.6597C44.6006 32.2686 44.9756 33.1131 45.6082 34.4403C45.8131 34.8699 46.1096 35.4919 46.1881 35.7825C46.0549 35.9095 45.7686 36.1061 45.5854 36.2319Z" fill="#34495E"/>
<path d="M28.2986 22.6971C28.1083 21.9917 27.6351 21.4267 26.9302 21.063C26.6139 20.9 26.2252 21.024 26.0619 21.3404C25.8988 21.6568 26.0229 22.0456 26.3393 22.2087C26.7242 22.4072 26.958 22.6769 27.054 23.0329C27.2061 23.5964 26.9761 24.2062 26.8752 24.3646C26.6838 24.6648 26.7721 25.0632 27.0722 25.2546C27.1796 25.3231 27.2995 25.3557 27.4181 25.3557C27.631 25.3557 27.8393 25.2504 27.9621 25.0576C28.2371 24.6265 28.5535 23.6419 28.2986 22.6971Z" fill="#34495E"/>
<path d="M25.137 14C24.7811 14 24.4925 14.2887 24.4925 14.6445V16.482C24.4925 16.8378 24.7811 17.1265 25.137 17.1265C25.493 17.1265 25.7816 16.8378 25.7816 16.482V14.6445C25.7816 14.2887 25.493 14 25.137 14Z" fill="#34495E"/>
<path d="M17.9857 22.989H16.1483C15.7923 22.989 15.5037 23.2777 15.5037 23.6335C15.5037 23.9895 15.7923 24.2781 16.1483 24.2781H17.9858C18.3417 24.2781 18.6302 23.9895 18.6302 23.6335C18.6302 23.2777 18.3416 22.989 17.9857 22.989Z" fill="#34495E"/>
<path d="M22.1193 17.1172L21.2009 15.5267C21.0228 15.2184 20.6286 15.1129 20.3204 15.2908C20.0122 15.4688 19.9065 15.8629 20.0845 16.1712L21.003 17.7618C21.1224 17.9686 21.339 18.0842 21.5617 18.0842C21.6711 18.0842 21.782 18.0563 21.8834 17.9977C22.1917 17.8196 22.2973 17.4255 22.1193 17.1172Z" fill="#34495E"/>
<path d="M19.2654 19.4995L17.6746 18.581C17.3664 18.4031 16.9721 18.5088 16.7942 18.8169C16.6162 19.1252 16.7218 19.5193 17.0301 19.6973L18.6208 20.6158C18.7223 20.6744 18.8331 20.7023 18.9425 20.7023C19.1652 20.7023 19.3818 20.5867 19.5013 20.3799C19.6793 20.0718 19.5736 19.6775 19.2654 19.4995Z" fill="#34495E"/>
<path d="M33.4803 18.8168C33.3022 18.5085 32.9081 18.4028 32.5999 18.5809L31.0091 19.4993C30.7008 19.6773 30.5952 20.0716 30.7732 20.3797C30.8926 20.5866 31.1092 20.7021 31.3319 20.7021C31.4413 20.7021 31.5521 20.6743 31.6536 20.6156L33.2444 19.6972C33.5527 19.5192 33.6583 19.125 33.4803 18.8168Z" fill="#34495E"/>
<path d="M19.5015 26.8871C19.3237 26.5788 18.9296 26.4733 18.6212 26.651L17.0301 27.5695C16.7218 27.7474 16.6161 28.1416 16.7941 28.4499C16.9134 28.6567 17.1301 28.7723 17.3529 28.7723C17.4622 28.7723 17.573 28.7445 17.6745 28.6859L19.2656 27.7675C19.5739 27.5896 19.6796 27.1953 19.5015 26.8871Z" fill="#34495E"/>
<path d="M21.7508 29.4987C21.4427 29.3209 21.0484 29.4265 20.8704 29.7346L20.0845 31.0961C19.9065 31.4044 20.0121 31.7986 20.3204 31.9765C20.4219 32.0352 20.5327 32.063 20.642 32.063C20.8648 32.063 21.0815 31.9475 21.2008 31.7406L21.9868 30.3792C22.1648 30.0709 22.0592 29.6768 21.7508 29.4987Z" fill="#34495E"/>
<path d="M29.9541 15.2906C29.6457 15.1126 29.2517 15.2182 29.0737 15.5265L28.1552 17.117C27.9772 17.4253 28.0828 17.8195 28.391 17.9975C28.4925 18.0561 28.6034 18.084 28.7127 18.084C28.9355 18.084 29.1521 17.9684 29.2715 17.7616L30.19 16.171C30.368 15.8627 30.2624 15.4686 29.9541 15.2906Z" fill="#34495E"/>
</svg>
