<svg width="51" height="51" viewBox="0 0 51 51" fill="none" xmlns="http://www.w3.org/2000/svg">
<g clip-path="url(#clip0)">
<path d="M42.0633 19.4778C41.6742 19.0889 41.0435 19.0889 40.6545 19.4778C40.2655 19.8669 40.2655 20.4976 40.6545 20.8866C40.6699 20.9019 40.6858 20.9176 40.7012 20.9319C40.8935 21.1119 41.138 21.2009 41.3821 21.2009C41.6478 21.2009 41.9132 21.0951 42.1092 20.8858C42.4853 20.4845 42.4647 19.8539 42.0633 19.4778Z" fill="#34495E"/>
<path d="M40.0399 17.842C39.4698 17.4548 38.8844 17.1095 38.3001 16.8153C34.9944 15.152 31.4915 14.8181 28.1697 15.8496C27.6444 16.0129 27.3506 16.571 27.5139 17.0963C27.677 17.6218 28.2349 17.9152 28.7606 17.7521C31.5799 16.8765 34.5689 17.1679 37.4044 18.5947C37.9045 18.8466 38.4289 19.1564 38.921 19.4902C39.0924 19.6066 39.287 19.6624 39.4795 19.6624C39.7985 19.6624 40.1119 19.5095 40.3046 19.2257C40.6136 18.7705 40.495 18.151 40.0399 17.842Z" fill="#34495E"/>
<path d="M49.1017 30.7323C48.6933 29.8757 48.0171 28.4571 48.0049 27.9878C49.1698 25.1167 48.7448 21.9394 46.8047 19.0331C43.8211 14.5634 37.7061 11.3191 32.2647 11.3191C29.3884 11.3191 26.5798 12.005 24.0529 13.3144C23.3279 9.34229 19.8444 6.32104 15.6662 6.32104C10.9641 6.32104 7.13867 10.1464 7.13867 14.8485C7.13867 17.84 8.66329 20.5601 11.2167 22.1244C11.9528 22.5754 12.1193 22.9653 12.1785 23.6041V27.0051V29.4328C12.1785 30.5451 13.0831 31.4499 14.1951 31.4499H14.5337C15.0809 35.8104 17.1912 39.7693 20.5411 42.6826C20.5726 42.781 20.6648 43.2423 20.2689 44.6186C19.9606 45.6908 19.4875 46.8818 19.0702 47.9327C18.7909 48.6358 18.5497 49.2432 18.4038 49.7024C18.3077 50.0051 18.3617 50.3356 18.5493 50.5921C18.7369 50.8485 19.0356 51.0001 19.3532 51.0001H33.5719C34.0391 51.0001 34.6807 50.7909 35.0847 49.7943C35.2605 49.3606 35.3752 48.8388 35.4968 48.2863C35.6152 47.748 35.8927 46.4873 36.1686 46.335C36.1688 46.335 36.1849 46.3323 36.2239 46.3383C36.275 46.3464 36.3267 46.3503 36.3785 46.3503C37.8675 46.3503 39.0843 46.4178 40.1577 46.4773C43.3063 46.652 45.2068 46.7575 46.874 44.3561C47.7219 43.1347 47.6257 41.3534 47.524 39.4675C47.4716 38.4955 47.4175 37.4923 47.5136 36.6583C47.6874 36.487 48.1227 36.1882 48.3956 36.0008C49.3346 35.3559 50.2214 34.747 50.2214 33.8211C50.2217 33.1174 49.7961 32.1889 49.1017 30.7323ZM12.2576 20.4255C10.2998 19.2262 9.13095 17.1414 9.13095 14.8484C9.13095 11.2447 12.0627 8.31313 15.6663 8.31313C19.2699 8.31313 22.2016 11.2448 22.2016 14.8484C22.2016 17.1414 21.0329 19.2263 19.075 20.4257C18.1446 20.9959 17.5915 21.661 17.3291 22.5597L15.666 22.5591L14.0037 22.5597C13.7411 21.6611 13.1881 20.9959 12.2576 20.4255ZM17.1619 24.5521V26.0089H14.1709V24.5521H17.1619ZM14.1953 29.4576C14.1842 29.4576 14.1709 29.4439 14.1709 29.4327V28.001H17.1619V29.4327C17.1619 29.444 17.1485 29.4576 17.1372 29.4576H14.1953ZM47.2681 34.3584C46.4108 34.9473 45.6703 35.4557 45.5611 36.2251C45.4111 37.2805 45.4741 38.4468 45.5348 39.5746C45.6103 40.9738 45.6958 42.5598 45.2376 43.2199C44.2465 44.6477 43.3893 44.6615 40.2682 44.4881C39.2385 44.431 37.9607 44.3601 36.4457 44.3579C35.8639 44.2894 34.8795 44.3986 34.2225 45.6757C33.8889 46.3241 33.7096 47.139 33.5514 47.8579C33.4719 48.2192 33.3602 48.7268 33.2556 49.0077H20.7872C20.8308 48.8976 20.8758 48.7842 20.9221 48.6678C22.357 45.0547 23.2659 42.4047 21.8825 41.2088C18.9504 38.6728 17.0805 35.2389 16.5443 31.4498H17.1373C18.2495 31.4498 19.1542 30.545 19.1542 29.4327V27.005V23.606C19.2133 22.966 19.3793 22.5758 20.116 22.1243C22.4739 20.6798 23.9533 18.2496 24.1662 15.5304C26.611 14.0776 29.3997 13.3112 32.2648 13.3112C37.011 13.3112 42.5496 16.2466 45.1479 20.1391C46.2615 21.8074 47.3372 24.4027 46.1371 27.2923C45.7462 28.2333 46.3257 29.5384 47.3035 31.5896C47.6201 32.2535 48.0783 33.2148 48.1996 33.6638C47.9938 33.8601 47.5513 34.1639 47.2681 34.3584Z" fill="#34495E"/>
<path d="M20.5526 13.441C20.2584 12.3507 19.5272 11.4776 18.4378 10.9155C17.9489 10.6636 17.3482 10.8552 17.0959 11.3443C16.8438 11.8333 17.0356 12.434 17.5246 12.6861C18.1193 12.9929 18.4807 13.4097 18.6291 13.9598C18.8641 14.8308 18.5087 15.7732 18.3527 16.018C18.057 16.4819 18.1934 17.0977 18.6572 17.3935C18.8232 17.4993 19.0086 17.5496 19.1917 17.5496C19.5207 17.5496 19.8427 17.387 20.0325 17.0889C20.4575 16.4227 20.9465 14.901 20.5526 13.441Z" fill="#34495E"/>
<path d="M15.6665 0C15.1164 0 14.6704 0.446149 14.6704 0.99609V3.83574C14.6704 4.38568 15.1164 4.83183 15.6665 4.83183C16.2165 4.83183 16.6626 4.38568 16.6626 3.83574V0.99609C16.6626 0.446149 16.2165 0 15.6665 0Z" fill="#34495E"/>
<path d="M4.61455 13.8921H1.7749C1.22476 13.8921 0.778809 14.3382 0.778809 14.8882C0.778809 15.4383 1.22476 15.8843 1.7749 15.8843H4.61465C5.16469 15.8843 5.61064 15.4383 5.61064 14.8882C5.61064 14.3382 5.16459 13.8921 4.61455 13.8921Z" fill="#34495E"/>
<path d="M11.0024 4.81749L9.583 2.35934C9.30788 1.88291 8.69857 1.71985 8.22224 1.99477C7.74591 2.26989 7.58266 2.879 7.85778 3.35543L9.2772 5.81358C9.46178 6.13322 9.79646 6.31182 10.1407 6.31182C10.3097 6.31182 10.4811 6.26879 10.6379 6.17815C11.1143 5.90303 11.2776 5.29392 11.0024 4.81749Z" fill="#34495E"/>
<path d="M6.59192 8.49911L4.13347 7.07969C3.65714 6.80476 3.04783 6.96802 2.77281 7.44425C2.49769 7.92068 2.66095 8.52979 3.13738 8.80491L5.59583 10.2243C5.75261 10.315 5.92394 10.358 6.09288 10.358C6.43713 10.358 6.77191 10.1794 6.95649 9.85977C7.23161 9.38354 7.06835 8.77423 6.59192 8.49911Z" fill="#34495E"/>
<path d="M28.5605 7.44414C28.2853 6.96771 27.6762 6.80445 27.1998 7.07957L24.7414 8.499C24.265 8.77412 24.1017 9.38343 24.3768 9.85966C24.5613 10.1793 24.8961 10.3579 25.2403 10.3579C25.4093 10.3579 25.5806 10.3149 25.7375 10.2242L28.1959 8.8048C28.6723 8.52968 28.8356 7.92057 28.5605 7.44414Z" fill="#34495E"/>
<path d="M6.95699 19.9164C6.68207 19.44 6.07306 19.2769 5.59653 19.5516L3.13748 20.9711C2.66105 21.246 2.4977 21.8553 2.77272 22.3317C2.95719 22.6514 3.29208 22.83 3.63633 22.83C3.80526 22.83 3.97649 22.7869 4.13337 22.6965L6.59232 21.2771C7.06875 21.0021 7.23211 20.3928 6.95699 19.9164Z" fill="#34495E"/>
<path d="M10.433 23.9526C9.95676 23.6777 9.34745 23.8409 9.07233 24.3172L7.8577 26.4212C7.58268 26.8977 7.74594 27.507 8.22237 27.7819C8.37925 27.8726 8.55048 27.9156 8.71942 27.9156C9.06367 27.9156 9.39855 27.737 9.58303 27.4173L10.7977 25.3133C11.0728 24.8368 10.9095 24.2277 10.433 23.9526Z" fill="#34495E"/>
<path d="M23.111 1.99461C22.6345 1.71949 22.0255 1.88275 21.7504 2.35918L20.3309 4.81733C20.0558 5.29376 20.219 5.90297 20.6954 6.17799C20.8523 6.26863 21.0236 6.31167 21.1926 6.31167C21.5368 6.31167 21.8716 6.13307 22.0562 5.81342L23.4756 3.35527C23.7507 2.87884 23.5875 2.26973 23.111 1.99461Z" fill="#34495E"/>
</g>
<defs>
<clipPath id="clip0">
<rect width="51" height="51" fill="white"/>
</clipPath>
</defs>
</svg>
