<svg width="63" height="63" viewBox="0 0 63 63" fill="none" xmlns="http://www.w3.org/2000/svg">
<circle cx="31.5" cy="31.5" r="30.5" fill="#FFBF43" stroke="#FFA801" stroke-width="2"/>
<path d="M42.2175 26.6033C41.9658 26.3516 41.5576 26.3516 41.306 26.6033C41.0543 26.855 41.0543 27.2631 41.306 27.5148C41.3159 27.5247 41.3262 27.5349 41.3362 27.5441C41.4606 27.6606 41.6188 27.7182 41.7767 27.7182C41.9487 27.7182 42.1204 27.6497 42.2472 27.5143C42.4906 27.2546 42.4773 26.8466 42.2175 26.6033Z" fill="#34495E"/>
<path d="M40.908 25.5449C40.539 25.2943 40.1603 25.0709 39.7822 24.8805C37.6432 23.8042 35.3766 23.5882 33.2272 24.2557C32.8873 24.3613 32.6972 24.7224 32.8029 25.0624C32.9085 25.4024 33.2695 25.5922 33.6096 25.4867C35.4338 24.9201 37.3679 25.1087 39.2026 26.0319C39.5262 26.1949 39.8656 26.3954 40.184 26.6114C40.2949 26.6866 40.4208 26.7228 40.5454 26.7228C40.7517 26.7228 40.9546 26.6239 41.0792 26.4402C41.2792 26.1457 41.2025 25.7448 40.908 25.5449Z" fill="#34495E"/>
<path d="M46.7717 33.8856C46.5075 33.3313 46.0699 32.4134 46.062 32.1097C46.8157 30.252 46.5408 28.1961 45.2854 26.3156C43.3548 23.4234 39.3981 21.3241 35.8772 21.3241C34.016 21.3241 32.1987 21.768 30.5636 22.6152C30.0945 20.045 27.8405 18.0901 25.137 18.0901C22.0944 18.0901 19.6191 20.5653 19.6191 23.6078C19.6191 25.5435 20.6057 27.3036 22.2578 28.3158C22.7341 28.6076 22.8419 28.8599 22.8802 29.2732V31.4739V33.0448C22.8802 33.7644 23.4656 34.3499 24.185 34.3499H24.4042C24.7582 37.1714 26.1237 39.7331 28.2913 41.6182C28.3117 41.6818 28.3713 41.9803 28.1152 42.8709C27.9157 43.5646 27.6096 44.3353 27.3396 45.0153C27.1588 45.4702 27.0027 45.8632 26.9084 46.1603C26.8462 46.3562 26.8811 46.5701 27.0025 46.736C27.1239 46.9019 27.3171 47 27.5227 47H36.723C37.0253 47 37.4405 46.8647 37.7018 46.2198C37.8156 45.9392 37.8899 45.6016 37.9685 45.2441C38.0451 44.8958 38.2247 44.08 38.4032 43.9815C38.4033 43.9815 38.4138 43.9797 38.439 43.9836C38.4721 43.9889 38.5055 43.9914 38.539 43.9914C39.5025 43.9914 40.2898 44.0351 40.9844 44.0736C43.0217 44.1866 44.2515 44.2549 45.3302 42.701C45.8788 41.9107 45.8167 40.7581 45.7508 39.5378C45.7169 38.9089 45.6819 38.2597 45.7441 37.72C45.8565 37.6093 46.1382 37.4159 46.3148 37.2947C46.9224 36.8773 47.4962 36.4833 47.4962 35.8842C47.4964 35.4289 47.221 34.8281 46.7717 33.8856ZM22.9314 27.2165C21.6646 26.4405 20.9083 25.0915 20.9083 23.6078C20.9083 21.276 22.8053 19.3791 25.137 19.3791C27.4688 19.3791 29.3658 21.2761 29.3658 23.6078C29.3658 25.0915 28.6095 26.4405 27.3427 27.2166C26.7406 27.5856 26.3828 28.016 26.2129 28.5975L25.1368 28.5971L24.0612 28.5975C23.8913 28.016 23.5335 27.5856 22.9314 27.2165ZM26.1048 29.8866V30.8293H24.1694V29.8866H26.1048ZM24.1852 33.0608C24.178 33.0608 24.1694 33.0519 24.1694 33.0447V32.1183H26.1048V33.0447C26.1048 33.052 26.0961 33.0608 26.0888 33.0608H24.1852ZM45.5853 36.2319C45.0305 36.6129 44.5514 36.9419 44.4807 37.4397C44.3837 38.1227 44.4244 38.8774 44.4637 39.6071C44.5126 40.5125 44.5679 41.5387 44.2714 41.9658C43.6301 42.8897 43.0754 42.8986 41.0559 42.7864C40.3896 42.7494 39.5628 42.7036 38.5825 42.7022C38.2061 42.6578 37.5691 42.7285 37.144 43.5548C36.9281 43.9744 36.8121 44.5017 36.7097 44.9669C36.6583 45.2006 36.586 45.5291 36.5184 45.7108H28.4505C28.4788 45.6396 28.5079 45.5662 28.5378 45.4909C29.4663 43.153 30.0544 41.4383 29.1593 40.6645C27.262 39.0236 26.0521 36.8017 25.7052 34.3499H26.0889C26.8085 34.3499 27.3939 33.7644 27.3939 33.0447V31.4738V29.2745C27.4321 28.8604 27.5396 28.6079 28.0163 28.3157C29.5419 27.381 30.4992 25.8086 30.637 24.0491C32.2189 23.109 34.0233 22.6131 35.8772 22.6131C38.9483 22.6131 42.5321 24.5125 44.2133 27.0312C44.9339 28.1106 45.6299 29.79 44.8534 31.6597C44.6005 32.2686 44.9755 33.1131 45.6081 34.4403C45.813 34.8699 46.1095 35.4919 46.188 35.7825C46.0548 35.9095 45.7685 36.1061 45.5853 36.2319Z" fill="#34495E"/>
<path d="M28.2985 22.6971C28.1082 21.9917 27.635 21.4267 26.9301 21.063C26.6138 20.9 26.2251 21.024 26.0618 21.3404C25.8987 21.6568 26.0228 22.0456 26.3392 22.2087C26.7241 22.4072 26.9579 22.6769 27.0539 23.0329C27.206 23.5964 26.976 24.2062 26.8751 24.3646C26.6837 24.6648 26.772 25.0632 27.0721 25.2546C27.1795 25.3231 27.2994 25.3557 27.418 25.3557C27.6309 25.3557 27.8392 25.2504 27.962 25.0576C28.237 24.6265 28.5534 23.6419 28.2985 22.6971Z" fill="#34495E"/>
<path d="M25.137 14C24.781 14 24.4924 14.2887 24.4924 14.6445V16.482C24.4924 16.8378 24.781 17.1265 25.137 17.1265C25.4929 17.1265 25.7815 16.8378 25.7815 16.482V14.6445C25.7815 14.2887 25.4929 14 25.137 14Z" fill="#34495E"/>
<path d="M17.9856 22.989H16.1482C15.7922 22.989 15.5037 23.2777 15.5037 23.6335C15.5037 23.9895 15.7922 24.2781 16.1482 24.2781H17.9857C18.3416 24.2781 18.6301 23.9895 18.6301 23.6335C18.6301 23.2777 18.3415 22.989 17.9856 22.989Z" fill="#34495E"/>
<path d="M22.1193 17.1172L21.2009 15.5267C21.0228 15.2184 20.6286 15.1129 20.3204 15.2908C20.0121 15.4688 19.9065 15.8629 20.0845 16.1712L21.003 17.7618C21.1224 17.9686 21.339 18.0842 21.5617 18.0842C21.6711 18.0842 21.782 18.0563 21.8834 17.9977C22.1917 17.8196 22.2973 17.4255 22.1193 17.1172Z" fill="#34495E"/>
<path d="M19.2654 19.4995L17.6747 18.581C17.3665 18.4031 16.9722 18.5088 16.7942 18.8169C16.6162 19.1252 16.7219 19.5193 17.0301 19.6973L18.6209 20.6158C18.7224 20.6744 18.8332 20.7023 18.9425 20.7023C19.1653 20.7023 19.3819 20.5867 19.5013 20.3799C19.6793 20.0718 19.5737 19.6775 19.2654 19.4995Z" fill="#34495E"/>
<path d="M33.4803 18.8168C33.3022 18.5085 32.9081 18.4028 32.5999 18.5809L31.0091 19.4993C30.7009 19.6773 30.5952 20.0716 30.7732 20.3797C30.8926 20.5866 31.1092 20.7021 31.332 20.7021C31.4413 20.7021 31.5522 20.6743 31.6537 20.6156L33.2444 19.6972C33.5527 19.5192 33.6584 19.125 33.4803 18.8168Z" fill="#34495E"/>
<path d="M19.5017 26.8871C19.3238 26.5788 18.9297 26.4733 18.6214 26.651L17.0302 27.5695C16.7219 27.7474 16.6162 28.1416 16.7942 28.4499C16.9135 28.6567 17.1302 28.7723 17.353 28.7723C17.4623 28.7723 17.5731 28.7445 17.6746 28.6859L19.2657 27.7675C19.574 27.5896 19.6797 27.1953 19.5017 26.8871Z" fill="#34495E"/>
<path d="M21.7508 29.4987C21.4427 29.3209 21.0484 29.4265 20.8704 29.7346L20.0845 31.0961C19.9065 31.4044 20.0122 31.7986 20.3204 31.9765C20.422 32.0352 20.5328 32.063 20.6421 32.063C20.8648 32.063 21.0815 31.9475 21.2009 31.7406L21.9868 30.3792C22.1648 30.0709 22.0592 29.6768 21.7508 29.4987Z" fill="#34495E"/>
<path d="M29.954 15.2906C29.6456 15.1126 29.2516 15.2182 29.0736 15.5265L28.1551 17.117C27.9771 17.4253 28.0827 17.8195 28.3909 17.9975C28.4924 18.0561 28.6033 18.084 28.7126 18.084C28.9354 18.084 29.152 17.9684 29.2714 17.7616L30.1899 16.171C30.3679 15.8627 30.2623 15.4686 29.954 15.2906Z" fill="#34495E"/>
</svg>
