<svg width="82" height="166" viewBox="0 0 82 166" fill="none" xmlns="http://www.w3.org/2000/svg">
<path d="M75.1796 111.698C72.4411 113.041 70.3743 112.37 69.7026 110.355C62.8822 94.654 47.1745 79.6241 41.0258 74.1493C30.0718 84.3758 8.88721 108.289 8.88721 123.991C8.2155 141.758 23.2514 156.788 40.3025 156.788C57.3535 156.788 72.4411 141.758 72.4411 123.991C72.4411 121.253 73.7845 119.91 76.523 119.91C79.2615 119.91 80.6049 121.253 80.6049 123.991C80.6049 146.51 62.8305 165 40.3025 165C17.7744 165 0 146.561 0 123.991C0 100.077 35.5488 67.28 37.564 65.9371C38.2357 65.2657 39.6307 64.5943 40.3025 64.5943C40.9742 64.5943 42.3693 65.2657 43.041 65.2657C43.7127 65.9371 66.9641 85.7704 76.523 106.946C77.9181 108.961 77.1947 111.027 75.1796 111.698Z" fill="#227093"/>
<path d="M7.82987 53.52L7.88235 53.5011L7.93241 53.4766C9.16962 52.8699 10.1155 52.7886 10.7477 52.9574C11.3348 53.1141 11.7804 53.518 12.0205 54.2379L12.0344 54.2797L12.0519 54.32C18.9682 70.2419 34.8304 85.398 40.9809 90.8744L41.6618 91.4807L42.3283 90.8585C47.8432 85.7098 55.9233 77.127 62.6333 67.8458C65.9888 63.2047 69.0166 58.3685 71.209 53.6837C73.3925 49.0179 74.7803 44.4331 74.7845 40.3051C75.4666 21.9712 59.9731 6.48911 42.3693 6.48911C24.7663 6.48911 8.55892 21.9663 8.55892 41.0093C8.55892 42.2286 8.25994 42.9469 7.83793 43.3687C7.41585 43.7907 6.69702 44.0896 5.477 44.0896C4.25698 44.0896 3.53815 43.7907 3.11607 43.3687C2.69406 42.9469 2.39509 42.2286 2.39509 41.0093L2.39508 41.007C2.34463 18.9696 19.6908 1 41.6975 1C63.7023 1 81 18.968 81 41.0093C81 46.7578 78.8573 53.1246 75.5271 59.5179C72.2038 65.898 67.74 72.225 63.1946 77.8731C58.6518 83.5181 54.0438 88.4648 50.4464 92.0833C48.648 93.8921 47.1047 95.3665 45.9515 96.4278C44.7671 97.5178 44.0542 98.1156 43.8815 98.2307L43.7991 98.2856L43.7291 98.3556C43.4983 98.5863 43.0865 98.864 42.6287 99.0871C42.1409 99.3249 41.7955 99.4057 41.6975 99.4057C41.6666 99.4057 41.5582 99.3933 41.3387 99.3347C41.1336 99.2799 40.9018 99.2049 40.6373 99.1189L40.6243 99.1147C40.3754 99.0339 40.0956 98.943 39.8338 98.873C39.7007 98.8375 39.5492 98.8008 39.3909 98.7741C39.3079 98.6994 39.2083 98.6102 39.093 98.5069C37.3954 96.9865 32.282 92.4066 26.2858 85.9052C19.2386 78.2642 11.1464 68.1398 6.42715 57.7277C6.14199 56.5157 6.17682 55.5714 6.41826 54.8984C6.6513 54.2489 7.09818 53.7825 7.82987 53.52Z" fill="#FFA801" stroke="#227093" stroke-width="2"/>
<path d="M41.6975 25.6366H41.7353L41.7729 25.6337C50.0077 25.0116 56.4052 31.9614 56.4052 39.6665C56.4052 47.4083 49.9539 55.0392 41.6975 55.0392C33.3897 55.0392 26.9899 48.0253 26.9899 40.3379C26.9899 32.6784 34.034 25.6366 41.6975 25.6366ZM41.6975 31.1257C37.1215 31.1257 32.482 34.9259 32.482 40.3379C32.482 44.9131 36.2843 49.5501 41.6975 49.5501C44.3483 49.5501 46.6527 48.5911 48.2947 46.9204C49.9351 45.2512 50.8614 42.9259 50.8614 40.2862C50.8614 34.9295 46.2775 31.1257 41.6975 31.1257Z" fill="#FFA801" stroke="#227093" stroke-width="2"/>
</svg>
