<svg width="46" height="46" viewBox="0 0 46 46" fill="none" xmlns="http://www.w3.org/2000/svg">
<circle cx="23" cy="23" r="22" fill="white" stroke="#34495E" stroke-width="2"/>
<path d="M15.3827 12.291C15.5346 16.4668 16.4332 20.3371 17.9409 23.2712L15.3827 12.291ZM15.3827 12.291L30.9672 12.1304C30.9013 16.3086 30.0826 20.1966 28.6357 23.1611L28.6357 23.1612C28.1502 24.1577 27.6213 25.0015 27.055 25.6831L27.0546 25.6835C27.0209 25.7179 26.9789 25.7607 26.9468 25.8109C26.3707 26.4735 25.7694 26.9787 25.154 27.3137C25.1162 27.3305 25.0807 27.3485 25.0447 27.3725C24.4868 27.6578 23.9138 27.8051 23.3356 27.811C22.7574 27.817 22.1815 27.6815 21.6177 27.4077C21.5787 27.3832 21.536 27.3654 21.5018 27.3512C20.8737 27.0287 20.2668 26.5353 19.6817 25.8832L19.6812 25.8825C19.6517 25.844 19.6152 25.7963 19.5713 25.7579C18.9916 25.0829 18.4461 24.2509 17.9409 23.2713L15.3827 12.291ZM16.3109 24.1047L16.3109 24.1048C16.4849 24.444 16.6654 24.7698 16.8499 25.0798C15.6211 24.551 14.4718 23.5514 13.5004 22.1289C12.08 20.0426 11.2231 17.299 11.0485 14.338L13.6784 14.3109C14.0173 17.9991 14.9253 21.3982 16.3109 24.1047ZM33.0409 21.9276L33.0409 21.9276C32.1034 23.3708 30.9744 24.3941 29.7517 24.9435C29.9301 24.6292 30.1043 24.299 30.2716 23.9555C31.6012 21.2264 32.439 17.8039 32.7018 14.1095L35.3317 14.0824C35.2182 17.0516 34.418 19.8124 33.0409 21.9276ZM36.2478 12.2504L32.7857 12.2861C32.7918 11.9241 32.7972 11.5604 32.7934 11.1922C32.7882 10.6866 32.3757 10.2825 31.8701 10.2877L14.4311 10.4674C13.9255 10.4726 13.5214 10.8851 13.5267 11.3907C13.5304 11.758 13.5387 12.1212 13.5557 12.4842L10.0948 12.5199C9.5892 12.5251 9.1851 12.9376 9.19031 13.4432C9.22804 17.1058 10.2228 20.556 11.9933 23.1614C13.7324 25.7207 16.0369 27.194 18.5254 27.3254C19.0734 27.9045 19.6513 28.3786 20.2499 28.7471L20.2855 32.2108L19.0182 32.2239C17.3135 32.2414 15.9374 33.6462 15.955 35.3509L15.9679 36.6082C15.4813 36.6343 15.0987 37.0382 15.1038 37.5302C15.109 38.0358 15.5215 38.4399 16.0271 38.4347L30.8453 38.282C31.3509 38.2768 31.755 37.8643 31.7498 37.3587C31.7447 36.8667 31.3538 36.4707 30.8668 36.4547L30.8537 35.1865C30.8362 33.4819 29.437 32.1057 27.7267 32.1233L26.4594 32.1364L26.4237 28.6781C27.0145 28.2973 27.5826 27.8114 28.1185 27.2212C30.6038 27.0385 32.8775 25.518 34.5635 22.9234C36.2855 20.2874 37.2088 16.8174 37.1711 13.1549C37.1659 12.6493 36.7534 12.2452 36.2478 12.2504ZM29.0314 35.2053L29.0444 36.4726L17.7957 36.5885L17.7826 35.3212C17.7754 34.6222 18.3379 34.048 19.0369 34.0408L27.7562 33.951C28.4503 33.9491 29.0242 34.512 29.0314 35.2053ZM24.6479 32.1604L22.1133 32.1866L22.0856 29.5015C22.5001 29.5975 22.9231 29.6433 23.3545 29.6388C23.7865 29.6344 24.2044 29.5798 24.6203 29.4751L24.6479 32.1604Z" fill="#34495E" stroke="#34495E" stroke-width="0.2"/>
</svg>
