<svg width="46" height="46" viewBox="0 0 46 46" fill="none" xmlns="http://www.w3.org/2000/svg">
<circle cx="23" cy="23" r="22" fill="white" stroke="#34495E" stroke-width="2"/>
<g clip-path="url(#clip0)">
<mask id="path-2-outside-1" maskUnits="userSpaceOnUse" x="7" y="6.62875" width="32" height="27" fill="black">
<rect fill="white" x="7" y="6.62875" width="32" height="27"/>
<path d="M37.6865 18.4008C37.6865 18.4008 35.0425 16.4407 35.0425 16.4324C35.0425 16.4324 34.8219 16.2247 34.8219 15.805C34.8219 14.7307 34.8219 11.5075 34.8219 11.5075C34.8219 11.0237 34.4146 10.63 33.9141 10.63H30.6504C30.1499 10.63 29.7427 11.0237 29.7427 11.5075C29.7427 11.5075 29.7427 12.0482 29.7427 12.2285C29.7427 12.4287 29.6297 12.3367 29.6297 12.3367L23.6127 7.80783C23.457 7.69071 23.2734 7.62875 23.0816 7.62875C22.7673 7.62875 22.479 7.80005 22.3291 8.07572L20.9204 10.6658C20.7489 10.9812 20.7483 11.422 20.9188 11.7376L22.7385 15.1064C22.7385 15.1064 22.8718 15.2803 22.6907 15.5882C22.2137 16.399 20.4128 18.5999 20.4128 18.5999C20.1933 18.8901 20.1287 19.3287 20.2558 19.6665L20.7391 20.9514C20.7391 20.9514 20.8952 21.3622 20.5938 21.1226C20.0071 20.6562 18.9848 19.9093 18.4593 19.492C18.172 19.2639 18.3947 18.9891 18.3947 18.9891L20.1915 15.9499C20.4018 15.5938 20.3546 15.1091 20.0792 14.7973L17.8646 12.2908C17.6899 12.0931 17.4338 11.9796 17.1619 11.9796C16.9573 11.9796 16.7566 12.0459 16.5966 12.1663L8.31354 18.4007C7.99182 18.6427 7.95819 18.9571 8.03405 19.1705C8.10982 19.3839 8.33604 19.6121 8.74372 19.6121H10.5682C10.5682 19.6121 10.755 19.5946 10.755 19.779C10.755 22.9577 10.755 32.4938 10.755 32.4938C10.755 32.9776 11.1622 33.3713 11.6627 33.3713H19.7629C20.2634 33.3713 20.6706 32.9776 20.6706 32.4938V28.7462C20.6706 28.5713 20.6656 28.2887 20.6594 28.1184C20.6591 28.1068 20.6353 26.9526 21.3384 26.2546C21.713 25.8825 22.2269 25.7017 22.9092 25.7017C23.6331 25.7017 24.2038 25.8995 24.6057 26.2895C25.3297 26.9924 25.3332 28.1196 25.3332 28.1285C25.331 28.2984 25.3292 28.5762 25.3292 28.7461V32.4937C25.3292 32.9776 25.7364 33.3712 26.2369 33.3712H34.3371C34.8376 33.3712 35.2448 32.9776 35.2448 32.4937C35.2448 32.4937 35.2448 23.0245 35.2448 19.868C35.2448 19.5914 35.4905 19.6121 35.4905 19.6121H37.2561C37.6638 19.6121 37.89 19.384 37.9658 19.1705C38.0418 18.9571 38.0082 18.6427 37.6865 18.4008ZM30.9267 11.9327C30.9267 11.7801 31.0844 11.7745 31.0844 11.7745H33.4325C33.4325 11.7745 33.638 11.7674 33.638 11.9773C33.638 12.7355 33.638 14.2013 33.638 15.0102C33.638 15.3472 33.4376 15.2026 33.4376 15.2026L30.9578 13.3362C30.9462 13.3215 30.9267 13.2919 30.9267 13.1869C30.9267 13.1869 30.9267 12.2682 30.9267 11.9327ZM34.9687 18.4676C34.4682 18.4676 34.061 18.8612 34.061 19.345V31.9425C34.061 31.9425 34.0998 32.2267 33.7742 32.2267C32.0451 32.2267 28.6586 32.2267 26.8578 32.2267C26.5125 32.2267 26.5134 31.9139 26.5134 31.9139V28.746C26.5134 28.58 26.5152 28.3086 26.5172 28.1427C26.5181 28.0777 26.5253 26.5393 25.4537 25.4906C24.8208 24.8712 23.9647 24.5571 22.9093 24.5571C21.9004 24.5571 21.0837 24.8622 20.4823 25.464C19.4303 26.5166 19.4739 28.0891 19.4763 28.1557C19.482 28.3146 19.4868 28.5849 19.4868 28.746V32.0093C19.4868 32.0093 19.5074 32.2267 19.1423 32.2267C17.3415 32.2267 13.9995 32.2267 12.2851 32.2267C11.8905 32.2267 11.9391 31.9139 11.9391 31.9139V19.345C11.9391 18.8612 11.5319 18.4676 11.0314 18.4676C11.0314 18.4676 10.5855 18.4676 10.4368 18.4676C10.2 18.4676 10.3996 18.2812 10.3996 18.2812L16.9764 13.3312C16.9764 13.3312 17.1196 13.2156 17.2167 13.32C17.5256 13.6522 18.4832 14.7546 18.8447 15.1624C19.0141 15.3537 18.8141 15.4895 18.8141 15.4895L13.7381 18.6356C13.5179 18.7721 13.4538 19.0553 13.595 19.2682C13.6855 19.4045 13.8381 19.4789 13.9942 19.4789C14.0816 19.4789 14.1702 19.4554 14.2493 19.4064C14.2493 19.4064 17.015 17.7198 17.9193 17.1317C18.1259 16.9973 18.1092 17.1652 18.1092 17.1652L17.0844 18.8986C16.8549 19.2871 16.9596 19.8085 17.323 20.0857L21.5412 23.3035C21.6973 23.4224 21.8603 23.4827 22.0258 23.4827C22.2329 23.4827 22.4269 23.3857 22.5447 23.2233C22.6373 23.0953 22.723 22.8766 22.6042 22.5608L21.3751 19.2936C21.3754 19.2836 21.3774 19.2699 21.3801 19.2603L23.8572 15.9853C24.091 15.676 24.1276 15.2052 23.9442 14.8658C23.9442 14.8658 23.3106 13.6739 23.0887 13.2822C22.8684 12.893 23.221 13.1171 23.221 13.1171L31.912 19.388C31.997 19.4494 32.0963 19.479 32.1948 19.479C32.3392 19.479 32.4818 19.4154 32.5748 19.295C32.7313 19.0925 32.6882 18.8056 32.4785 18.6543L22.147 11.1993C22.147 11.1993 22.0085 11.1152 22.0982 10.9579C22.3101 10.5863 22.8618 9.54001 23.083 9.14912C23.1809 8.97607 23.3629 9.07022 23.3629 9.07022L35.5082 18.2116C35.5082 18.2116 35.7475 18.4676 35.4055 18.4676C35.2962 18.4676 34.9687 18.4676 34.9687 18.4676Z"/>
</mask>
<path d="M37.6865 18.4008C37.6865 18.4008 35.0425 16.4407 35.0425 16.4324C35.0425 16.4324 34.8219 16.2247 34.8219 15.805C34.8219 14.7307 34.8219 11.5075 34.8219 11.5075C34.8219 11.0237 34.4146 10.63 33.9141 10.63H30.6504C30.1499 10.63 29.7427 11.0237 29.7427 11.5075C29.7427 11.5075 29.7427 12.0482 29.7427 12.2285C29.7427 12.4287 29.6297 12.3367 29.6297 12.3367L23.6127 7.80783C23.457 7.69071 23.2734 7.62875 23.0816 7.62875C22.7673 7.62875 22.479 7.80005 22.3291 8.07572L20.9204 10.6658C20.7489 10.9812 20.7483 11.422 20.9188 11.7376L22.7385 15.1064C22.7385 15.1064 22.8718 15.2803 22.6907 15.5882C22.2137 16.399 20.4128 18.5999 20.4128 18.5999C20.1933 18.8901 20.1287 19.3287 20.2558 19.6665L20.7391 20.9514C20.7391 20.9514 20.8952 21.3622 20.5938 21.1226C20.0071 20.6562 18.9848 19.9093 18.4593 19.492C18.172 19.2639 18.3947 18.9891 18.3947 18.9891L20.1915 15.9499C20.4018 15.5938 20.3546 15.1091 20.0792 14.7973L17.8646 12.2908C17.6899 12.0931 17.4338 11.9796 17.1619 11.9796C16.9573 11.9796 16.7566 12.0459 16.5966 12.1663L8.31354 18.4007C7.99182 18.6427 7.95819 18.9571 8.03405 19.1705C8.10982 19.3839 8.33604 19.6121 8.74372 19.6121H10.5682C10.5682 19.6121 10.755 19.5946 10.755 19.779C10.755 22.9577 10.755 32.4938 10.755 32.4938C10.755 32.9776 11.1622 33.3713 11.6627 33.3713H19.7629C20.2634 33.3713 20.6706 32.9776 20.6706 32.4938V28.7462C20.6706 28.5713 20.6656 28.2887 20.6594 28.1184C20.6591 28.1068 20.6353 26.9526 21.3384 26.2546C21.713 25.8825 22.2269 25.7017 22.9092 25.7017C23.6331 25.7017 24.2038 25.8995 24.6057 26.2895C25.3297 26.9924 25.3332 28.1196 25.3332 28.1285C25.331 28.2984 25.3292 28.5762 25.3292 28.7461V32.4937C25.3292 32.9776 25.7364 33.3712 26.2369 33.3712H34.3371C34.8376 33.3712 35.2448 32.9776 35.2448 32.4937C35.2448 32.4937 35.2448 23.0245 35.2448 19.868C35.2448 19.5914 35.4905 19.6121 35.4905 19.6121H37.2561C37.6638 19.6121 37.89 19.384 37.9658 19.1705C38.0418 18.9571 38.0082 18.6427 37.6865 18.4008ZM30.9267 11.9327C30.9267 11.7801 31.0844 11.7745 31.0844 11.7745H33.4325C33.4325 11.7745 33.638 11.7674 33.638 11.9773C33.638 12.7355 33.638 14.2013 33.638 15.0102C33.638 15.3472 33.4376 15.2026 33.4376 15.2026L30.9578 13.3362C30.9462 13.3215 30.9267 13.2919 30.9267 13.1869C30.9267 13.1869 30.9267 12.2682 30.9267 11.9327ZM34.9687 18.4676C34.4682 18.4676 34.061 18.8612 34.061 19.345V31.9425C34.061 31.9425 34.0998 32.2267 33.7742 32.2267C32.0451 32.2267 28.6586 32.2267 26.8578 32.2267C26.5125 32.2267 26.5134 31.9139 26.5134 31.9139V28.746C26.5134 28.58 26.5152 28.3086 26.5172 28.1427C26.5181 28.0777 26.5253 26.5393 25.4537 25.4906C24.8208 24.8712 23.9647 24.5571 22.9093 24.5571C21.9004 24.5571 21.0837 24.8622 20.4823 25.464C19.4303 26.5166 19.4739 28.0891 19.4763 28.1557C19.482 28.3146 19.4868 28.5849 19.4868 28.746V32.0093C19.4868 32.0093 19.5074 32.2267 19.1423 32.2267C17.3415 32.2267 13.9995 32.2267 12.2851 32.2267C11.8905 32.2267 11.9391 31.9139 11.9391 31.9139V19.345C11.9391 18.8612 11.5319 18.4676 11.0314 18.4676C11.0314 18.4676 10.5855 18.4676 10.4368 18.4676C10.2 18.4676 10.3996 18.2812 10.3996 18.2812L16.9764 13.3312C16.9764 13.3312 17.1196 13.2156 17.2167 13.32C17.5256 13.6522 18.4832 14.7546 18.8447 15.1624C19.0141 15.3537 18.8141 15.4895 18.8141 15.4895L13.7381 18.6356C13.5179 18.7721 13.4538 19.0553 13.595 19.2682C13.6855 19.4045 13.8381 19.4789 13.9942 19.4789C14.0816 19.4789 14.1702 19.4554 14.2493 19.4064C14.2493 19.4064 17.015 17.7198 17.9193 17.1317C18.1259 16.9973 18.1092 17.1652 18.1092 17.1652L17.0844 18.8986C16.8549 19.2871 16.9596 19.8085 17.323 20.0857L21.5412 23.3035C21.6973 23.4224 21.8603 23.4827 22.0258 23.4827C22.2329 23.4827 22.4269 23.3857 22.5447 23.2233C22.6373 23.0953 22.723 22.8766 22.6042 22.5608L21.3751 19.2936C21.3754 19.2836 21.3774 19.2699 21.3801 19.2603L23.8572 15.9853C24.091 15.676 24.1276 15.2052 23.9442 14.8658C23.9442 14.8658 23.3106 13.6739 23.0887 13.2822C22.8684 12.893 23.221 13.1171 23.221 13.1171L31.912 19.388C31.997 19.4494 32.0963 19.479 32.1948 19.479C32.3392 19.479 32.4818 19.4154 32.5748 19.295C32.7313 19.0925 32.6882 18.8056 32.4785 18.6543L22.147 11.1993C22.147 11.1993 22.0085 11.1152 22.0982 10.9579C22.3101 10.5863 22.8618 9.54001 23.083 9.14912C23.1809 8.97607 23.3629 9.07022 23.3629 9.07022L35.5082 18.2116C35.5082 18.2116 35.7475 18.4676 35.4055 18.4676C35.2962 18.4676 34.9687 18.4676 34.9687 18.4676Z" fill="#34495E"/>
<path d="M37.6865 18.4008C37.6865 18.4008 35.0425 16.4407 35.0425 16.4324C35.0425 16.4324 34.8219 16.2247 34.8219 15.805C34.8219 14.7307 34.8219 11.5075 34.8219 11.5075C34.8219 11.0237 34.4146 10.63 33.9141 10.63H30.6504C30.1499 10.63 29.7427 11.0237 29.7427 11.5075C29.7427 11.5075 29.7427 12.0482 29.7427 12.2285C29.7427 12.4287 29.6297 12.3367 29.6297 12.3367L23.6127 7.80783C23.457 7.69071 23.2734 7.62875 23.0816 7.62875C22.7673 7.62875 22.479 7.80005 22.3291 8.07572L20.9204 10.6658C20.7489 10.9812 20.7483 11.422 20.9188 11.7376L22.7385 15.1064C22.7385 15.1064 22.8718 15.2803 22.6907 15.5882C22.2137 16.399 20.4128 18.5999 20.4128 18.5999C20.1933 18.8901 20.1287 19.3287 20.2558 19.6665L20.7391 20.9514C20.7391 20.9514 20.8952 21.3622 20.5938 21.1226C20.0071 20.6562 18.9848 19.9093 18.4593 19.492C18.172 19.2639 18.3947 18.9891 18.3947 18.9891L20.1915 15.9499C20.4018 15.5938 20.3546 15.1091 20.0792 14.7973L17.8646 12.2908C17.6899 12.0931 17.4338 11.9796 17.1619 11.9796C16.9573 11.9796 16.7566 12.0459 16.5966 12.1663L8.31354 18.4007C7.99182 18.6427 7.95819 18.9571 8.03405 19.1705C8.10982 19.3839 8.33604 19.6121 8.74372 19.6121H10.5682C10.5682 19.6121 10.755 19.5946 10.755 19.779C10.755 22.9577 10.755 32.4938 10.755 32.4938C10.755 32.9776 11.1622 33.3713 11.6627 33.3713H19.7629C20.2634 33.3713 20.6706 32.9776 20.6706 32.4938V28.7462C20.6706 28.5713 20.6656 28.2887 20.6594 28.1184C20.6591 28.1068 20.6353 26.9526 21.3384 26.2546C21.713 25.8825 22.2269 25.7017 22.9092 25.7017C23.6331 25.7017 24.2038 25.8995 24.6057 26.2895C25.3297 26.9924 25.3332 28.1196 25.3332 28.1285C25.331 28.2984 25.3292 28.5762 25.3292 28.7461V32.4937C25.3292 32.9776 25.7364 33.3712 26.2369 33.3712H34.3371C34.8376 33.3712 35.2448 32.9776 35.2448 32.4937C35.2448 32.4937 35.2448 23.0245 35.2448 19.868C35.2448 19.5914 35.4905 19.6121 35.4905 19.6121H37.2561C37.6638 19.6121 37.89 19.384 37.9658 19.1705C38.0418 18.9571 38.0082 18.6427 37.6865 18.4008ZM30.9267 11.9327C30.9267 11.7801 31.0844 11.7745 31.0844 11.7745H33.4325C33.4325 11.7745 33.638 11.7674 33.638 11.9773C33.638 12.7355 33.638 14.2013 33.638 15.0102C33.638 15.3472 33.4376 15.2026 33.4376 15.2026L30.9578 13.3362C30.9462 13.3215 30.9267 13.2919 30.9267 13.1869C30.9267 13.1869 30.9267 12.2682 30.9267 11.9327ZM34.9687 18.4676C34.4682 18.4676 34.061 18.8612 34.061 19.345V31.9425C34.061 31.9425 34.0998 32.2267 33.7742 32.2267C32.0451 32.2267 28.6586 32.2267 26.8578 32.2267C26.5125 32.2267 26.5134 31.9139 26.5134 31.9139V28.746C26.5134 28.58 26.5152 28.3086 26.5172 28.1427C26.5181 28.0777 26.5253 26.5393 25.4537 25.4906C24.8208 24.8712 23.9647 24.5571 22.9093 24.5571C21.9004 24.5571 21.0837 24.8622 20.4823 25.464C19.4303 26.5166 19.4739 28.0891 19.4763 28.1557C19.482 28.3146 19.4868 28.5849 19.4868 28.746V32.0093C19.4868 32.0093 19.5074 32.2267 19.1423 32.2267C17.3415 32.2267 13.9995 32.2267 12.2851 32.2267C11.8905 32.2267 11.9391 31.9139 11.9391 31.9139V19.345C11.9391 18.8612 11.5319 18.4676 11.0314 18.4676C11.0314 18.4676 10.5855 18.4676 10.4368 18.4676C10.2 18.4676 10.3996 18.2812 10.3996 18.2812L16.9764 13.3312C16.9764 13.3312 17.1196 13.2156 17.2167 13.32C17.5256 13.6522 18.4832 14.7546 18.8447 15.1624C19.0141 15.3537 18.8141 15.4895 18.8141 15.4895L13.7381 18.6356C13.5179 18.7721 13.4538 19.0553 13.595 19.2682C13.6855 19.4045 13.8381 19.4789 13.9942 19.4789C14.0816 19.4789 14.1702 19.4554 14.2493 19.4064C14.2493 19.4064 17.015 17.7198 17.9193 17.1317C18.1259 16.9973 18.1092 17.1652 18.1092 17.1652L17.0844 18.8986C16.8549 19.2871 16.9596 19.8085 17.323 20.0857L21.5412 23.3035C21.6973 23.4224 21.8603 23.4827 22.0258 23.4827C22.2329 23.4827 22.4269 23.3857 22.5447 23.2233C22.6373 23.0953 22.723 22.8766 22.6042 22.5608L21.3751 19.2936C21.3754 19.2836 21.3774 19.2699 21.3801 19.2603L23.8572 15.9853C24.091 15.676 24.1276 15.2052 23.9442 14.8658C23.9442 14.8658 23.3106 13.6739 23.0887 13.2822C22.8684 12.893 23.221 13.1171 23.221 13.1171L31.912 19.388C31.997 19.4494 32.0963 19.479 32.1948 19.479C32.3392 19.479 32.4818 19.4154 32.5748 19.295C32.7313 19.0925 32.6882 18.8056 32.4785 18.6543L22.147 11.1993C22.147 11.1993 22.0085 11.1152 22.0982 10.9579C22.3101 10.5863 22.8618 9.54001 23.083 9.14912C23.1809 8.97607 23.3629 9.07022 23.3629 9.07022L35.5082 18.2116C35.5082 18.2116 35.7475 18.4676 35.4055 18.4676C35.2962 18.4676 34.9687 18.4676 34.9687 18.4676Z" stroke="#34495E" stroke-width="0.4" mask="url(#path-2-outside-1)"/>
</g>
<defs>
<clipPath id="clip0">
<rect width="30" height="29" fill="white" transform="translate(8 6)"/>
</clipPath>
</defs>
</svg>
