<svg width="25" height="25" viewBox="0 0 25 25" fill="none" xmlns="http://www.w3.org/2000/svg">
<g clip-path="url(#clip0)">
<path d="M12.5 5.5556C14.0341 5.5556 15.2778 4.31194 15.2778 2.7778C15.2778 1.24366 14.0341 0 12.5 0C10.9658 0 9.72217 1.24366 9.72217 2.7778C9.72217 4.31194 10.9658 5.5556 12.5 5.5556Z" fill="#34495E"/>
<path d="M12.5 15.2778C14.0341 15.2778 15.2778 14.0341 15.2778 12.5C15.2778 10.9658 14.0341 9.72217 12.5 9.72217C10.9658 9.72217 9.72217 10.9658 9.72217 12.5C9.72217 14.0341 10.9658 15.2778 12.5 15.2778Z" fill="#34495E"/>
<path d="M12.5 24.9999C14.0341 24.9999 15.2778 23.7563 15.2778 22.2221C15.2778 20.688 14.0341 19.4443 12.5 19.4443C10.9658 19.4443 9.72217 20.688 9.72217 22.2221C9.72217 23.7563 10.9658 24.9999 12.5 24.9999Z" fill="#34495E"/>
</g>
<defs>
<clipPath id="clip0">
<rect width="25" height="25" fill="white"/>
</clipPath>
</defs>
</svg>
