<svg width="44" height="44" viewBox="0 0 44 44" fill="none" xmlns="http://www.w3.org/2000/svg">
<path d="M31.625 26.9555V25.0917L33.9082 23.8404C33.9474 23.8191 33.9838 23.7944 34.0182 23.7655C35.1189 22.8477 35.75 21.5002 35.75 20.0681V18.5625H36.0938C37.4206 18.5625 38.5 17.4831 38.5 16.1562C38.5 15.3787 38.1232 14.6933 37.5485 14.2526C37.7176 13.4977 37.8125 12.6115 37.8125 11.6875C37.8125 6.00119 33.1863 1.375 27.5 1.375C24.8765 1.375 22.418 2.35469 20.5074 4.125H18.5625C16.2876 4.125 14.4375 5.97506 14.4375 8.25C14.4375 9.30737 14.8411 10.2706 15.4976 11.0014C14.5557 11.0076 13.739 11.6469 13.5101 12.5627L13.2137 13.75H11V13.5671C11 12.5476 10.2389 11.6696 9.22969 11.5259L6.57869 11.1471C5.69731 11.0193 4.84 11.4709 4.44262 12.2664L2.96794 15.2151C2.82494 15.4997 2.75 15.8187 2.75 16.137V24.7012C2.75 25.8039 3.179 26.8393 3.95862 27.6182L6.06925 29.7302C6.589 30.2486 6.875 30.9389 6.875 31.6738V41.9375C6.875 42.317 7.18231 42.625 7.5625 42.625H13.75H41.25C41.6102 42.625 41.91 42.3466 41.9354 41.9863L42.625 32.3125C42.625 29.8849 35.3189 27.8355 31.625 26.9555ZM21.6707 28.853L23.8741 36.5654L22.7624 36.4416L22.6105 37.8077L34.375 39.1153V41.25H19.8268L18.2167 32.1262C17.9692 30.7154 17.3828 29.3638 16.5227 28.2171C15.9046 27.3934 15.0913 26.7142 14.1701 26.2542L11.9659 25.1522C11.7893 25.0635 11.6662 24.904 11.6153 24.7163L11.5878 24.5939L11.1884 21.3991C11.1636 21.2004 11.2228 21.0086 11.3548 20.8587C11.4565 20.7432 11.5933 20.6828 11.7397 20.6539C12.0918 23.3482 14.3976 25.4375 17.1875 25.4375C20.1554 25.4375 22.5748 23.0732 22.6779 20.13C22.7542 20.1816 22.8271 20.2393 22.891 20.3101C23.1083 20.5508 23.2107 20.8608 23.1784 21.1833L22.7638 25.3254C22.7322 25.6396 22.5919 25.9359 22.3699 26.158C21.6659 26.862 21.3978 27.8939 21.6707 28.853ZM13.0185 31.0173L12.0656 26.7389L13.5547 27.4835C14.2856 27.8493 14.9318 28.3876 15.4227 29.0421C15.5121 29.1617 15.587 29.2909 15.6695 29.4154C14.4189 29.9599 13.5458 30.4824 13.0185 31.0173ZM13.0625 19.9375C13.0625 17.6626 14.9126 15.8125 17.1875 15.8125C19.4624 15.8125 21.3125 17.6626 21.3125 19.9375C21.3125 22.2124 19.4624 24.0625 17.1875 24.0625C14.9126 24.0625 13.0625 22.2124 13.0625 19.9375ZM22.5191 18.612C22.1464 17.1139 21.1626 15.8558 19.844 15.125H26.125V24.75H24.2034L24.5465 21.3201C24.6166 20.6161 24.3849 19.9121 23.9099 19.3875C23.5421 18.9812 23.0505 18.7138 22.5191 18.612ZM24.75 26.125H26.8125H28.6701C29.2126 26.125 29.7502 26.0157 30.25 25.8108V28.5773C28.6818 29.9523 26.3182 29.9523 24.75 28.5773V26.125ZM34.375 20.0681C34.375 21.0698 33.9426 22.0138 33.1863 22.6676L30.0142 24.4062C29.6031 24.6318 29.139 24.75 28.6701 24.75H27.5V14.4375C27.5 14.058 27.1927 13.75 26.8125 13.75H21.1613L20.8643 12.562C20.8477 12.4967 20.8223 12.4369 20.8003 12.375H31.383L34.375 14.7675V20.0681ZM36.0938 17.1875H35.75V15.125H36.0938C36.6623 15.125 37.125 15.5877 37.125 16.1562C37.125 16.7248 36.6623 17.1875 36.0938 17.1875ZM27.5 2.75C32.428 2.75 36.4375 6.7595 36.4375 11.6875C36.4375 12.4355 36.3715 13.1512 36.2512 13.7658C36.1982 13.7624 36.1474 13.75 36.0938 13.75H35.3038L32.3125 11.3568V8.25C32.3125 5.97506 30.4624 4.125 28.1875 4.125H22.748C24.1581 3.23469 25.7881 2.75 27.5 2.75ZM18.5625 5.5H28.1875C29.7041 5.5 30.9375 6.73338 30.9375 8.25V11H18.8636H18.5625C17.0459 11 15.8125 9.76663 15.8125 8.25C15.8125 6.73338 17.0459 5.5 18.5625 5.5ZM14.8438 12.8961C14.9208 12.5895 15.1951 12.375 15.5114 12.375H18.5625H18.8636C19.1799 12.375 19.4535 12.5895 19.5312 12.8961L19.745 13.75H14.63L14.8438 12.8961ZM14.531 15.125C13.0247 15.9603 11.9522 17.4818 11.7336 19.2644C11.1932 19.3009 10.6851 19.5387 10.3242 19.9471C9.933 20.3906 9.75081 20.9811 9.82369 21.5676L10.2211 24.75H8.9375V22.6875H8.89763C9.34519 22.2502 9.625 21.6425 9.625 20.9688V15.125H10.3125H14.531ZM7.04137 28.7574L4.93075 26.6454C4.411 26.1264 4.125 25.4361 4.125 24.7012V16.137C4.125 16.0311 4.14975 15.9239 4.19719 15.8297L5.67188 12.881C5.80387 12.6163 6.08712 12.4657 6.38344 12.5084L9.03444 12.8872C9.37131 12.9346 9.625 13.2275 9.625 13.5671V13.75H8.9375H6.875V15.125H8.25V16.5H6.875V17.875H8.25V19.25H6.875V20.625H8.25V20.9688C8.25 21.5373 7.78731 22 7.21875 22H6.875V23.375H7.21875C7.33631 23.375 7.44906 23.3564 7.5625 23.3399V25.4375C7.5625 25.817 7.86981 26.125 8.25 26.125H10.5208L12.3922 34.5242L12.5297 34.4933L13.0116 41.25H8.25V31.6738C8.25 30.5717 7.821 29.5357 7.04137 28.7574ZM13.75 32.3125C13.75 32.3063 13.8284 31.6944 16.3371 30.6192C16.5791 31.1781 16.7564 31.7652 16.8623 32.3647L18.4305 41.25H14.3894L13.75 32.3125ZM40.6099 41.25H35.75V35.75H34.375V37.7321L25.3522 36.7297L22.9934 28.4756C22.8573 27.9971 22.9907 27.4821 23.342 27.1301C23.3544 27.1178 23.3633 27.1033 23.375 27.0909V28.875C23.375 29.0572 23.4472 29.2325 23.5764 29.3611C24.6579 30.4425 26.0796 30.9836 27.5 30.9836C28.9204 30.9836 30.3421 30.4425 31.4236 29.3611C31.5528 29.2325 31.625 29.0572 31.625 28.875V28.3718C36.7613 29.634 41.25 31.4504 41.2521 32.2637L40.6099 41.25Z" fill="black"/>
<path d="M30.9375 15.2969C30.2741 15.2969 29.7344 15.8366 29.7344 16.5C29.7344 17.1634 30.2741 17.7031 30.9375 17.7031C31.6009 17.7031 32.1406 17.1634 32.1406 16.5C32.1406 15.8366 31.6009 15.2969 30.9375 15.2969ZM30.7656 16.5C30.7656 16.4051 30.8426 16.3281 30.9375 16.3281C31.0324 16.3281 31.1094 16.4051 31.1094 16.5C31.1094 16.6891 30.7656 16.6891 30.7656 16.5Z" fill="black"/>
<path d="M17.1875 22.6875C18.7041 22.6875 19.9375 21.4541 19.9375 19.9375C19.9375 18.4209 18.7041 17.1875 17.1875 17.1875C15.6709 17.1875 14.4375 18.4209 14.4375 19.9375C14.4375 21.4541 15.6709 22.6875 17.1875 22.6875ZM17.1875 18.5625C17.9458 18.5625 18.5625 19.1792 18.5625 19.9375C18.5625 20.6958 17.9458 21.3125 17.1875 21.3125C16.4292 21.3125 15.8125 20.6958 15.8125 19.9375C15.8125 19.1792 16.4292 18.5625 17.1875 18.5625Z" fill="black"/>
</svg>
