<svg width="22" height="22" viewBox="0 0 22 22" fill="none" xmlns="http://www.w3.org/2000/svg">
<path d="M10.1377 14.3965C10.1494 13.6992 10.2285 13.1484 10.375 12.7441C10.5215 12.3398 10.8203 11.8916 11.2715 11.3994L12.4229 10.2129C12.915 9.65625 13.1611 9.05859 13.1611 8.41992C13.1611 7.80469 13 7.32422 12.6777 6.97852C12.3555 6.62695 11.8867 6.45117 11.2715 6.45117C10.6738 6.45117 10.1934 6.60938 9.83008 6.92578C9.4668 7.24219 9.28516 7.66699 9.28516 8.2002H7.65918C7.6709 7.25098 8.00781 6.48633 8.66992 5.90625C9.33789 5.32031 10.2051 5.02734 11.2715 5.02734C12.3789 5.02734 13.2402 5.32617 13.8555 5.92383C14.4766 6.51562 14.7871 7.33008 14.7871 8.36719C14.7871 9.39258 14.3125 10.4033 13.3633 11.3994L12.4053 12.3486C11.9775 12.8232 11.7637 13.5059 11.7637 14.3965H10.1377ZM10.0674 17.1826C10.0674 16.9189 10.1465 16.6992 10.3047 16.5234C10.4688 16.3418 10.709 16.251 11.0254 16.251C11.3418 16.251 11.582 16.3418 11.7461 16.5234C11.9102 16.6992 11.9922 16.9189 11.9922 17.1826C11.9922 17.4463 11.9102 17.666 11.7461 17.8418C11.582 18.0117 11.3418 18.0967 11.0254 18.0967C10.709 18.0967 10.4688 18.0117 10.3047 17.8418C10.1465 17.666 10.0674 17.4463 10.0674 17.1826Z" fill="#34495E"/>
<circle cx="11" cy="11" r="10.5" stroke="#34495E"/>
</svg>
