<svg width="42" height="42" viewBox="0 0 42 42" fill="none" xmlns="http://www.w3.org/2000/svg">
<g clip-path="url(#clip0)">
<path d="M19.2304 9.19275H10.73C10.3902 9.19275 10.1147 9.46821 10.1147 9.80798C10.1147 10.1478 10.3902 10.4232 10.73 10.4232H19.2304C19.5701 10.4232 19.8456 10.1478 19.8456 9.80798C19.8457 9.46821 19.5702 9.19275 19.2304 9.19275Z" fill="black"/>
<path d="M30.7846 29.8889H26.2339C25.8941 29.8889 25.6187 30.1644 25.6187 30.5041C25.6187 30.8439 25.8941 31.1194 26.2339 31.1194H30.7846C31.1244 31.1194 31.3999 30.8439 31.3999 30.5041C31.3999 30.1644 31.1244 29.8889 30.7846 29.8889Z" fill="black"/>
<path d="M39.0668 10.6834C39.3641 10.8478 39.7385 10.7401 39.903 10.4428C41.109 8.26232 41.8335 6.04618 41.9981 4.03387C42.0283 3.66113 41.7072 3.34014 41.3345 3.37057C38.9871 3.56253 36.4168 4.51187 33.9549 6.04216C33.6886 4.96132 33.3523 4.11689 32.9339 3.47844C32.291 2.49752 31.4523 2 30.4412 2H3.59198C2.3205 2 1.36049 2.4086 0.738944 3.21463C-0.467568 4.77872 0.159969 7.23907 0.187285 7.34308C0.258324 7.61346 0.502776 7.80205 0.782338 7.80205H6.19802C6.74812 11.303 6.72007 16.2813 6.69406 20.8636C6.68086 23.1901 6.66716 25.5959 6.72302 27.7884C6.73163 28.128 7.01341 28.3957 7.35367 28.3878C7.69336 28.3792 7.96169 28.0968 7.95307 27.7571C7.89779 25.5838 7.9114 23.1879 7.92453 20.8707C7.9557 15.3797 7.98572 10.0976 7.21726 6.52967C7.14409 6.19014 7.06082 5.85201 6.96345 5.51855C6.69234 4.58717 6.34765 3.8119 5.90952 3.23063H30.4412C31.556 3.23063 32.3485 4.38653 32.8586 6.76149C32.1946 7.22849 31.5471 7.73626 30.9191 8.27832C29.5148 9.49049 28.2182 10.8727 27.103 12.3709H10.73C10.3902 12.3709 10.1148 12.6464 10.1148 12.9862C10.1148 13.3259 10.3902 13.6014 10.73 13.6014H26.2459C25.7918 14.2987 25.3837 15.0062 25.0265 15.7165H10.73C10.3902 15.7165 10.1148 15.9919 10.1148 16.3317C10.1148 16.6715 10.3902 16.9469 10.73 16.9469H24.4588C24.1617 17.6563 23.9179 18.3638 23.7298 19.062H10.73C10.3902 19.062 10.1148 19.3375 10.1148 19.6773C10.1148 20.017 10.3902 20.2925 10.73 20.2925H23.4547C23.4034 20.5857 23.3642 20.8759 23.3349 21.1632L21.4348 23.0634C21.1945 23.3037 21.1945 23.6932 21.4348 23.9334C21.6674 24.166 22.0655 24.1728 22.3049 23.9334L24.2042 22.0341C25.3449 21.9183 26.4648 21.638 27.5432 21.2528C28.6533 20.8563 29.722 20.3467 30.742 19.7569C31.7252 19.1884 32.6643 18.5442 33.555 17.8398C33.5546 18.8468 33.5489 19.8667 33.5431 20.8631C33.518 25.2849 33.4921 29.8468 33.9446 33.1988C33.9446 33.1988 13.564 33.1988 13.5395 33.1988C13.1496 33.1988 12.8538 33.5714 12.9405 33.9509C12.9419 33.957 12.9425 33.9631 12.9441 33.9692C12.9442 33.9699 12.9452 33.9738 12.9466 33.9793C12.9808 34.1215 13.3968 35.9492 12.638 36.9936C12.6358 36.9967 12.6336 36.9998 12.6313 37.0029C12.1944 37.5962 11.4219 37.7742 10.7223 37.7702C9.2271 37.7618 8.3538 35.2844 8.05266 30.1971C8.03256 29.858 7.7416 29.5996 7.40215 29.6194C7.06296 29.6395 6.80423 29.9307 6.82441 30.2699C7.06501 34.3349 7.72642 39.0008 10.73 39.0008H37.5792C38.8507 39.0008 39.8107 38.5922 40.4322 37.7862C41.6386 36.222 41.0111 33.7616 40.9837 33.6576C40.9127 33.3872 40.6683 33.1987 40.3887 33.1987H35.1873C34.7226 29.924 34.7484 25.3255 34.7737 20.87C34.7813 19.528 34.789 18.144 34.7836 16.8028C35.1257 16.4957 35.4619 16.1776 35.7909 15.8486C36.8172 14.8223 37.7494 13.7207 38.5613 12.5746C38.7577 12.2973 38.6921 11.9134 38.4149 11.7169C38.1376 11.5205 37.7536 11.5861 37.5571 11.8633C36.7852 12.9529 35.8982 14.0011 34.9207 14.9785C34.1502 15.7491 33.3282 16.4698 32.4615 17.1306C30.3444 18.7442 28.0784 19.9031 25.9248 20.4695C25.8555 20.4876 25.7859 20.5046 25.7163 20.5218L36.6498 9.58852C36.8901 9.34825 36.8901 8.95868 36.6498 8.7185C36.4095 8.47823 36.02 8.47823 35.7798 8.7185L24.8464 19.6518C24.862 19.5883 24.877 19.5248 24.8938 19.4611C25.5217 17.0578 26.7277 14.8638 28.2361 12.9085C28.2367 12.9077 28.2372 12.9071 28.2378 12.9063C28.2424 12.9002 28.2473 12.8941 28.252 12.888C29.6586 11.0487 31.3283 9.40887 33.1942 8.03748C35.6448 6.24051 38.2731 5.05295 40.6829 4.68536C40.4324 6.32246 39.7978 8.09071 38.8262 9.84724C38.6618 10.1446 38.7695 10.5189 39.0668 10.6834ZM5.96563 6.57134H1.29101V6.57142C1.26214 6.37249 1.23589 6.12246 1.23031 5.84881C1.21899 5.28903 1.29388 4.50744 1.71519 3.96341C2.09237 3.47631 2.69579 3.23637 3.55925 3.23046L3.96202 3.27476C3.96785 3.27616 3.97359 3.27763 3.97933 3.27911C4.79291 3.49108 5.42816 4.46806 5.87367 6.18932C5.90648 6.31614 5.93675 6.44362 5.96563 6.57134ZM39.8787 34.4293C39.9721 35.0813 40.04 36.2802 39.458 37.0348C39.0763 37.5297 38.4617 37.7703 37.5793 37.7703H13.5952C14.3865 36.7299 14.376 35.3008 14.2722 34.4293H39.8787Z" fill="black"/>
</g>
<defs>
<clipPath id="clip0">
<rect width="42" height="42" fill="white"/>
</clipPath>
</defs>
</svg>
