<svg width="54" height="54" viewBox="0 0 54 54" fill="none" xmlns="http://www.w3.org/2000/svg">
<g clip-path="url(#clip0)">
<path d="M14.2462 12.9419C13.2057 12.9858 12.2758 13.6203 11.8584 14.5824C11.4458 15.5333 11.6089 16.6307 12.2681 17.419C9.73282 18.8164 8.15154 21.484 8.14942 24.387L8.14942 24.3871L8.14942 51.3871C8.14942 52.8991 9.37532 54.125 10.8873 54.125L27.4357 54.125C28.9477 54.125 30.1736 52.8991 30.1736 51.3871L30.1736 24.3871L30.1736 24.3869C30.1694 21.2271 28.3004 18.3728 25.4177 17.1019C25.9162 16.2833 25.9521 15.2587 25.5029 14.4039C25.0495 13.5411 24.1734 12.9869 23.2059 12.9424L23.2059 11.4476L25.6938 11.4476C26.2438 11.4476 26.6897 11.0017 26.6897 10.4516L26.6897 6.96776C26.6897 6.41774 26.2438 5.9718 25.6938 5.9718L23.1981 5.9718C23.1366 5.48077 22.7176 5.10083 22.2099 5.10083L15.2422 5.10083C14.6921 5.10083 14.2462 5.54677 14.2462 6.0968L14.2462 12.9419ZM24.6978 7.96373L24.6978 9.45567L23.2059 9.45567L23.2059 7.96373L24.6978 7.96373ZM16.2381 7.09276L21.2139 7.09276L21.2139 12.9395L16.2381 12.9395L16.2381 7.09276ZM14.3712 16.4234C13.9592 16.4234 13.6252 16.0894 13.6252 15.6774C13.6252 15.2655 13.9592 14.9315 14.3712 14.9315L23.0809 14.9315C23.4928 14.9315 23.8268 15.2655 23.8268 15.6774C23.8268 16.0894 23.4928 16.4234 23.0809 16.4234L14.3712 16.4234ZM28.1817 51.3871C28.1817 51.7991 27.8477 52.1331 27.4357 52.1331L10.8873 52.1331C10.4754 52.1331 10.1414 51.7991 10.1414 51.3871L10.1414 24.3873C10.1455 21.091 12.817 18.4195 16.1133 18.4153L22.2097 18.4153C25.5061 18.4195 28.1775 21.091 28.1817 24.3873L28.1817 51.3871Z" fill="#34495E" stroke="#34495E" stroke-width="0.25"/>
<path d="M29.1773 7.0927L29.1776 7.0927C29.292 7.0927 29.4049 7.07275 29.5124 7.03391C29.5125 7.03387 29.5126 7.03382 29.5127 7.03378L40.8348 2.99085L40.8348 2.99089L40.8378 2.98974C41.3416 2.79522 41.5984 2.23446 41.4165 1.72614C41.2351 1.21758 40.6817 0.946222 40.1686 1.11449L40.1686 1.11445L40.1655 1.11555L28.8429 5.15951L28.8427 5.15958C28.3875 5.32299 28.1156 5.7899 28.1983 6.26652C28.281 6.74298 28.6938 7.09173 29.1773 7.0927Z" fill="#34495E" stroke="#34495E" stroke-width="0.25"/>
<path d="M29.5143 10.3853L40.8345 14.4275L40.8346 14.4276L40.7926 14.5453C41.1919 14.6873 41.4309 15.0965 41.3586 15.5141C41.2863 15.9317 40.924 16.2366 40.5 16.2366C40.4 16.2366 40.3014 16.2192 40.2074 16.1852L29.5143 10.3853ZM29.5143 10.3853C29.176 10.2499 28.7906 10.31 28.5096 10.5424M29.5143 10.3853L40.1651 16.3028C40.165 16.3028 40.1649 16.3027 40.1648 16.3027L28.8451 12.2597C28.4976 12.1502 28.2375 11.8594 28.1672 11.5019C28.0967 11.1436 28.2279 10.7749 28.5096 10.5424M28.5096 10.5424C28.5096 10.5423 28.5096 10.5423 28.5097 10.5423L28.5892 10.6387L28.5096 10.5424C28.5096 10.5424 28.5096 10.5424 28.5096 10.5424Z" fill="#34495E" stroke="#34495E" stroke-width="0.25"/>
<path d="M29.1776 9.70556L42.2421 9.70556C42.7922 9.70556 43.2381 9.25962 43.2381 8.70959C43.2381 8.15957 42.7922 7.71362 42.2421 7.71362L29.1776 7.71362C28.6276 7.71362 28.1816 8.15957 28.1816 8.70959C28.1816 9.25962 28.6276 9.70556 29.1776 9.70556Z" fill="#34495E" stroke="#34495E" stroke-width="0.25"/>
</g>
<defs>
<clipPath id="clip0">
<rect width="54" height="54" fill="white"/>
</clipPath>
</defs>
</svg>
