<svg width="11" height="12" viewBox="0 0 11 12" fill="none" xmlns="http://www.w3.org/2000/svg">
<path d="M0.802112 0.338257H1.94799C2.3903 0.338257 2.7501 0.714128 2.7501 1.17618V1.35143C3.44312 0.982742 5.0171 0.338257 7.57698 0.338257H8.31034C9.3728 0.338257 10.2748 1.13213 10.455 2.22575L10.9683 5.33805C11.0774 6.00217 10.9019 6.6773 10.4875 7.19155C10.0736 7.70484 9.46676 7.99931 8.82369 7.99931H6.74462C6.87433 8.36321 7.00405 8.89374 7.00405 9.55546C7.00405 11.3544 6.02959 11.8298 5.51441 11.8298C4.56287 11.8298 4.48312 10.9028 4.48312 10.0343C4.48312 8.97418 3.34504 8.09316 2.74414 7.70149C2.71343 8.13433 2.37013 8.47812 1.94799 8.47812H0.802112C0.359805 8.47812 0 8.10225 0 7.6402V1.17618C0 0.714128 0.359805 0.338257 0.802112 0.338257ZM5.17065 10.0343C5.17065 11.1116 5.34528 11.1116 5.51441 11.1116C5.83709 11.1116 6.31652 10.697 6.31652 9.55546C6.31652 8.4944 5.91867 7.84417 5.91592 7.83938C5.8458 7.72926 5.83892 7.58753 5.89896 7.4707C5.95855 7.35386 6.07543 7.28109 6.20193 7.28109H8.82369C9.26371 7.28109 9.67852 7.07998 9.96178 6.72901C10.2455 6.37756 10.3656 5.91502 10.2909 5.46063L9.77752 2.34833C9.65423 1.60042 9.03729 1.05696 8.31034 1.05696H7.57698C4.45883 1.05648 2.89677 2.0754 2.7501 2.17643V6.87361C3.13191 7.08525 5.17065 8.29665 5.17065 10.0343ZM0.687525 7.6402C0.687525 7.70627 0.73886 7.7599 0.802112 7.7599H1.94799C2.01124 7.7599 2.06257 7.70627 2.06257 7.6402V1.17618C2.06257 1.11107 2.01032 1.05648 1.94799 1.05648H0.802112C0.73886 1.05648 0.687525 1.11011 0.687525 1.17618V7.6402Z" fill="white"/>
</svg>
