<svg width="11" height="12" viewBox="0 0 11 12" fill="none" xmlns="http://www.w3.org/2000/svg">
<path d="M0.802112 11.785H1.94799C2.39029 11.785 2.7501 11.4092 2.7501 10.9471V10.7719C3.44312 11.1406 5.0171 11.785 7.57698 11.785H8.31034C9.3728 11.785 10.2748 10.9912 10.455 9.89756L10.9683 6.78529C11.0774 6.12118 10.9019 5.44606 10.4875 4.93182C10.0736 4.41853 9.46676 4.12406 8.82369 4.12406H6.74462C6.87433 3.76017 7.00405 3.22965 7.00405 2.56793C7.00405 0.769038 6.02959 0.293579 5.51441 0.293579C4.56287 0.293579 4.48312 1.22056 4.48312 2.08912C4.48312 3.14921 3.34504 4.03022 2.74414 4.42188C2.71343 3.98904 2.37013 3.64525 1.94799 3.64525H0.802112C0.359805 3.64525 0 4.02112 0 4.48317V10.9471C0 11.4092 0.359805 11.785 0.802112 11.785ZM5.17065 2.08912C5.17065 1.0118 5.34528 1.0118 5.51441 1.0118C5.83709 1.0118 6.31652 1.42645 6.31652 2.56793C6.31652 3.62897 5.91867 4.2792 5.91592 4.28399C5.84579 4.39411 5.83892 4.53584 5.89896 4.65267C5.95855 4.7695 6.07543 4.84228 6.20193 4.84228H8.82369C9.26371 4.84228 9.67852 5.04338 9.96178 5.39435C10.2455 5.7458 10.3656 6.20833 10.2909 6.66272L9.77752 9.77499C9.65422 10.5229 9.03729 11.0663 8.31034 11.0663H7.57698C4.45883 11.0668 2.89677 10.0479 2.7501 9.94688V5.24975C3.13191 5.03811 5.17065 3.82672 5.17065 2.08912ZM0.687525 4.48317C0.687525 4.4171 0.73886 4.36347 0.802112 4.36347H1.94799C2.01124 4.36347 2.06257 4.4171 2.06257 4.48317V10.9471C2.06257 11.0122 2.01032 11.0668 1.94799 11.0668H0.802112C0.73886 11.0668 0.687525 11.0132 0.687525 10.9471V4.48317Z" fill="white"/>
</svg>
