<?xml version="1.0" encoding="utf-8"?>
<!-- Generator: Adobe Illustrator 22.0.0, SVG Export Plug-In . SVG Version: 6.00 Build 0)  -->
<svg version="1.1" id="Layer_1" xmlns="http://www.w3.org/2000/svg" xmlns:xlink="http://www.w3.org/1999/xlink" x="0px" y="0px"
	 viewBox="0 0 2597.6 2491.3" style="enable-background:new 0 0 2597.6 2491.3;" xml:space="preserve">
<style type="text/css">
	.st0{fill:#FFA801;stroke:#FFA801;}
	.st1{fill:#34495E;}
</style>
<g>
	<path class="st0" d="M1908.9,2371.5v-274.4l-298.7-34.3l-70.8-582.8h164.5l264-610.5l98-763h-611H495.4l179.5,763l58,192l408.5,727
		l-109.8,240l-298.7,68.6l56,274.4H1908.9z"/>
	<path class="st1" d="M2519.3,175l-332.8,2.2c0.4-35.4,0.9-70.9,0.3-106.8c-0.7-40.3-35.1-72.6-77.2-72.3L481.6,8.5
		c-42,0.3-75.4,33-74.8,73.3c0.6,35.9,1.7,71.4,3.8,106.8l-332.8,2.2c-42,0.3-75.4,33-74.8,73.3c5.3,326.3,99.5,633.5,264.9,865.5
		c163.3,229.1,378.2,359.8,608.4,370.9c53.1,54,109,97.9,166.8,131.5l5.3,323.8l-127.6,0.8c-154,1-277.6,122.2-275.2,269.8l2,121.4
		l-5.6,0c-42,0.3-75.4,33-74.8,73.3s35.1,72.6,77.2,72.3l1383.4-9c42-0.3,75.5-33,74.8-73.3c-0.7-40.3-35.1-72.6-77.2-72.3l-5.6,0
		l-2-122.4c-2.4-147.6-129.5-267.2-284-266.2l-127.6,0.8l-5.3-323.4c56.7-34.4,111.2-78.9,162.5-133.6
		c229.8-14.1,440.3-147.5,596.1-378.7c158.3-233.6,242.4-542,237-868.3C2595.8,207,2561.4,174.7,2519.3,175z M392.8,1047.7
		C256.4,856.8,174.3,605.8,157.7,336l263.9-1.7C454.4,666.7,541,973,672.1,1216.3c20.9,38.7,42.8,75.5,65.1,109.8
		C610.4,1280.8,491.8,1186,392.8,1047.7z M1866.4,2217.6l2,122.4l-1068.8,6.9l-2-122.3c-1.1-67.5,55.2-122.7,125.6-123.2l814-5.3
		C1807.1,2096.1,1865.3,2150.6,1866.4,2217.6z M1455.2,1952.7l-254.8,1.6l-4.3-260.7c41.7,10.4,84.3,15.5,127.9,15.2
		c43.6-0.3,85.5-5.9,127.4-16.8l4.3,260.7H1455.2z M1495.2,1518.4c-3.5,1.5-6.5,3-9.5,4.9c-53.3,26.1-108.3,39.5-164,39.9
		c-55.7,0.4-111.1-12.4-165.3-37.8c-3.1-1.9-6.6-3.3-10.2-4.8c-60.3-29.7-118.3-75-173.9-134.3c-3.1-3.9-6.2-7.7-9.8-10.6
		c-55.2-61.3-107.1-136.7-155.2-225.3C663.1,883.8,576.8,532.3,561.5,154.2l1474-9.5c-2.9,378.3-77.7,730.8-213.1,999.2
		c-45.1,89.6-94.6,165.7-147.8,227.2c-3.5,3.4-7,6.8-9.5,10.7C1611,1441.9,1554,1487.9,1495.2,1518.4z M2232.5,1035.8
		c-94,139.5-209.4,235.9-335.3,282.3c21.2-34.6,41.9-71.6,61.5-110.6c123.1-244.5,199.7-552.4,221.6-885.2l263.9-1.7
		C2436.5,591.2,2362.6,843.2,2232.5,1035.8z"/>
</g>
</svg>
