<?xml version="1.0" encoding="utf-8"?>
<!-- Generator: Adobe Illustrator 22.0.0, SVG Export Plug-In . SVG Version: 6.00 Build 0)  -->
<svg version="1.1" id="Layer_1" xmlns="http://www.w3.org/2000/svg" xmlns:xlink="http://www.w3.org/1999/xlink" x="0px" y="0px"
	 viewBox="0 0 2594 2496" style="enable-background:new 0 0 2594 2496;" xml:space="preserve">
<style type="text/css">
	.st0{fill:#34495E;}
</style>
<path class="st0" d="M2516.4,177.1l-332.8,2.2c0.4-35.4,0.9-70.9,0.3-106.8c-0.7-40.3-35.1-72.6-77.2-72.3l-1628,10.5
	c-42,0.3-75.4,33-74.8,73.3c0.6,35.9,1.7,71.4,3.8,106.8l-332.8,2.2c-42,0.3-75.4,33-74.8,73.3c5.3,326.3,99.5,633.5,265,865.5
	c163.3,229.1,378.2,359.8,608.4,370.9c53.1,54,109,97.9,166.8,131.5l5.3,323.8l-127.6,0.8c-154,1-277.6,122.2-275.2,269.8l2,121.4
	l-5.6,0c-42,0.3-75.4,33-74.8,73.3c0.7,40.3,35.1,72.6,77.2,72.3l1383.4-9c42-0.3,75.5-33,74.8-73.3c-0.7-40.3-35.1-72.6-77.2-72.3
	l-5.6,0l-2-122.4c-2.4-147.6-129.5-267.2-284-266.2l-127.6,0.8L1598,1630c56.7-34.4,111.2-78.9,162.5-133.6
	c229.8-14.1,440.3-147.5,596.1-378.7c158.3-233.6,242.4-542,237-868.3C2592.9,209.2,2558.5,176.9,2516.4,177.1z M389.9,1049.8
	C253.5,858.9,171.4,608,154.8,338.1l263.9-1.7c32.8,332.4,119.4,638.7,250.5,882.1c20.9,38.7,42.8,75.5,65.1,109.8
	C607.5,1283,488.9,1188.1,389.9,1049.8z M1863.5,2219.7l2,122.3L796.7,2349l-2-122.3c-1.1-67.5,55.2-122.7,125.6-123.2l814-5.3
	C1804.3,2098.2,1862.4,2152.7,1863.5,2219.7z M1452.4,1954.8l-254.8,1.7l-4.3-260.7c41.7,10.4,84.3,15.5,127.9,15.2
	c43.6-0.3,85.5-5.9,127.4-16.8l4.3,260.7H1452.4z M1492.3,1520.5c-3.5,1.5-6.5,2.9-9.5,4.9c-53.3,26.1-108.3,39.5-164,39.9
	c-55.7,0.4-111.1-12.4-165.3-37.8c-3.1-1.9-6.6-3.4-10.2-4.8c-60.3-29.7-118.3-75-173.9-134.3c-3.1-3.9-6.2-7.7-9.8-10.6
	c-55.2-61.3-107.1-136.7-155.2-225.3C660.3,885.9,573.9,534.5,558.6,156.3l1474-9.5c-2.9,378.3-77.7,730.8-213.1,999.2
	c-45.1,89.6-94.6,165.7-147.8,227.2c-3.5,3.4-7,6.8-9.5,10.7C1608.1,1444,1551.1,1490,1492.3,1520.5z M2229.6,1037.9
	c-94,139.5-209.4,235.9-335.3,282.3c21.2-34.6,41.9-71.7,61.5-110.6c123.2-244.5,199.7-552.4,221.6-885.2l263.9-1.7
	C2433.6,593.3,2359.7,845.3,2229.6,1037.9z"/>
</svg>
