<?xml version="1.0" encoding="utf-8"?>
<!-- Generator: Adobe Illustrator 22.0.0, SVG Export Plug-In . SVG Version: 6.00 Build 0)  -->
<svg version="1.1" id="Layer_1" xmlns="http://www.w3.org/2000/svg" xmlns:xlink="http://www.w3.org/1999/xlink" x="0px" y="0px"
	 viewBox="0 0 2598.3 2492.3" style="enable-background:new 0 0 2598.3 2492.3;" xml:space="preserve">
<style type="text/css">
	.st0{fill:#FFA801;stroke:#FFA801;}
	.st1{fill:#34495E;}
</style>
<path class="st0" d="M1907.9,2367.6v-146l-298.7-18.3l-280,36.5l-298.7-54.8l-298.7,36.5l56,146H1907.9z"/>
<path class="st1" d="M2518.3,176.9l-332.8,2.1c0.4-35.3,0.9-70.7,0.3-106.5c-0.7-40.2-35.1-72.4-77.2-72.1l-1628,10.5
	c-42,0.3-75.4,32.9-74.8,73.1c0.6,35.8,1.7,71.2,3.8,106.5l-332.8,2.1C34.8,193,1.3,225.6,2,265.8c5.3,325.3,99.5,631.7,264.9,863.1
	c163.3,228.4,378.2,358.8,608.4,369.9c53.1,53.9,109,97.6,166.8,131.1l5.3,322.9l-127.6,0.8c-154,1-277.6,121.9-275.2,269.1l2,121
	l-5.6,0c-42,0.3-75.4,32.9-74.8,73.1c0.7,40.2,35.1,72.4,77.2,72.1l1383.4-8.9c42-0.3,75.5-32.9,74.8-73.1
	c-0.7-40.2-35.1-72.4-77.2-72.1l-5.6,0l-2-122c-2.4-147.2-129.5-266.4-284-265.4l-127.6,0.8l-5.3-322.4
	c56.7-34.3,111.2-78.7,162.5-133.2c229.8-14.1,440.3-147.1,596.1-377.7c158.3-233,242.4-540.5,237-865.8
	C2594.8,208.9,2560.4,176.7,2518.3,176.9z M391.8,1047.2C255.4,856.8,173.3,606.5,156.7,337.4l263.9-1.7
	c32.8,331.5,119.4,636.9,250.5,879.6c20.9,38.6,42.8,75.3,65.1,109.5C609.4,1279.7,490.8,1185,391.8,1047.2z M1865.3,2213.8l2,122
	l-1068.8,6.9l-2-122c-1.1-67.3,55.2-122.4,125.6-122.8l814-5.3C1806.1,2092.7,1864.2,2147,1865.3,2213.8z M1454.2,1949.7l-254.8,1.6
	l-4.3-260c41.7,10.4,84.3,15.4,127.9,15.2c43.6-0.3,85.5-5.9,127.4-16.8l4.3,260H1454.2z M1494.2,1516.5c-3.5,1.5-6.5,2.9-9.5,4.9
	c-53.3,26-108.3,39.4-164,39.8c-55.7,0.4-111.2-12.4-165.3-37.7c-3.1-1.9-6.6-3.3-10.2-4.8c-60.3-29.6-118.3-74.8-173.9-134
	c-3.1-3.8-6.2-7.7-9.8-10.6c-55.2-61.1-107.1-136.3-155.2-224.6C662.1,883.7,575.8,533.3,560.5,156.2l1474-9.5
	c-2.9,377.2-77.7,728.7-213.1,996.4c-45.1,89.4-94.6,165.2-147.7,226.6c-3.5,3.4-7,6.8-9.5,10.7
	C1610,1440.3,1553,1486.1,1494.2,1516.5z M2231.5,1035.3c-94,139.1-209.4,235.2-335.3,281.6c21.2-34.5,41.9-71.4,61.5-110.3
	c123.1-243.9,199.7-550.9,221.6-882.7l263.9-1.7C2435.5,591.9,2361.6,843.2,2231.5,1035.3z"/>
</svg>
