<svg width="74" height="70" viewBox="0 0 74 70" fill="none" xmlns="http://www.w3.org/2000/svg">
<path d="M69.8694 5.11549L60.644 5.17523C60.6559 4.19256 60.6679 3.20988 60.6516 2.21393C60.6333 1.09684 59.6777 0.201196 58.5122 0.208743L13.3818 0.500991C12.2164 0.508538 11.2904 1.41637 11.3087 2.53345C11.325 3.52941 11.3551 4.51181 11.4134 5.49403L2.1879 5.55377C1.02243 5.56132 0.0964147 6.46915 0.114727 7.58624C0.262989 16.6306 2.87423 25.1475 7.45947 31.5787C11.9872 37.9295 17.9448 41.5521 24.3255 41.8608C25.7965 43.3588 27.3472 44.5737 28.9493 45.5055L29.0965 54.4825L25.5579 54.5054C21.2892 54.5331 17.8616 57.8934 17.9287 61.9849L17.9838 65.3496L17.8294 65.3506C16.6639 65.3582 15.7379 66.266 15.7562 67.3831C15.7745 68.5002 16.7301 69.3958 17.8955 69.3883L56.2437 69.1399C57.4092 69.1324 58.3352 68.2246 58.3169 67.1075C58.2986 65.9904 57.343 65.0947 56.1775 65.1023L56.0231 65.1033L55.9675 61.7117C55.9004 57.6202 52.3774 54.3049 48.0946 54.3326L44.5561 54.3555L44.4091 45.3919C45.9804 44.4395 47.4909 43.2049 48.9125 41.6881C55.2817 41.2969 61.1193 37.5979 65.4379 31.1898C69.8256 24.7139 72.1571 16.165 72.0088 7.12068C71.9905 6.00359 71.0349 5.10795 69.8694 5.11549ZM10.919 29.3084C7.13889 24.0161 4.86216 17.0584 4.40249 9.57751L11.7183 9.53013C12.6277 18.7445 15.0278 27.2359 18.6633 33.9828C19.2426 35.0559 19.8491 36.0749 20.4686 37.0266C16.9512 35.7707 13.6641 33.1403 10.919 29.3084ZM51.769 61.7389L51.8246 65.1305L22.1964 65.3223L22.1408 61.9307C22.1101 60.0599 23.6719 58.5288 25.6237 58.5162L48.1889 58.3701C50.1269 58.371 51.7385 59.8815 51.769 61.7389ZM40.3718 54.3961L33.3088 54.4418L33.1903 47.2144C34.3466 47.503 35.5286 47.6435 36.7361 47.6356C37.9437 47.6278 39.1068 47.4722 40.2674 47.1686L40.3859 54.396L40.3718 54.3961ZM41.4805 42.3554C41.3829 42.3964 41.2993 42.4373 41.2159 42.4917C39.7392 43.2147 38.2146 43.588 36.67 43.598C35.1254 43.608 33.5888 43.2545 32.0887 42.5508C32.0036 42.4975 31.9046 42.4578 31.8057 42.4181C30.1351 41.5943 28.5276 40.3395 26.9839 38.6939C26.8979 38.5868 26.8119 38.4796 26.7123 38.3995C25.1818 36.7 23.7432 34.6095 22.411 32.1549C18.4139 24.7642 16.0213 15.021 15.5967 4.53819L56.4583 4.27358C56.3774 14.7596 54.3047 24.5318 50.5508 31.9727C49.2995 34.4575 47.9298 36.5661 46.4551 38.2717C46.3583 38.3665 46.2616 38.4614 46.1931 38.5695C44.6897 40.2348 43.1097 41.5103 41.4805 42.3554ZM61.9189 28.9782C59.314 32.8447 56.1139 35.5171 52.6241 36.8049C53.2123 35.8454 53.7853 34.8187 54.3293 33.7384C57.743 26.9593 59.8641 18.4252 60.4712 9.20097L67.787 9.15359C67.5729 16.6523 65.5247 23.638 61.9189 28.9782Z" fill="#34495E"/>
</svg>
